<svg width="280" height="406" viewBox="0 0 280 406" fill="none" xmlns="http://www.w3.org/2000/svg">
<path d="M81.1842 151.804L92.052 139.654C92.6717 139.972 93.3519 140.142 94.0537 140.142C95.3147 140.135 96.498 139.585 97.3834 138.592C99.2123 136.543 99.2015 133.229 97.3531 131.2C96.457 130.217 95.2694 129.679 94.0083 129.686C92.7495 129.688 91.5662 130.238 90.6787 131.231C89.7912 132.224 89.3075 133.536 89.314 134.933C89.3183 135.715 89.4759 136.464 89.7696 137.146L79.3747 148.773L53.6076 148.904L42.0574 136.223L55.4279 121.27C56.0476 121.589 56.7235 121.761 57.4253 121.756C58.6863 121.749 59.8696 121.199 60.7592 120.206C62.5882 118.157 62.5774 114.843 60.7247 112.814C59.8307 111.829 58.6453 111.295 57.3864 111.297C56.1254 111.305 54.942 111.855 54.0567 112.848C52.6251 114.451 52.325 116.832 53.1477 118.763L38.6479 134.978C38.0217 135.677 38.026 136.799 38.6565 137.493L51.8175 151.945C52.1241 152.278 52.5323 152.465 52.9555 152.46L80.0527 152.324C80.4759 152.324 80.884 152.132 81.182 151.8L81.1842 151.804ZM92.9611 133.737C93.2439 133.421 93.6218 133.244 94.0256 133.244C94.4251 133.244 94.8073 133.411 95.0923 133.727C95.684 134.373 95.6861 135.433 95.101 136.084C94.5352 136.72 93.5398 136.723 92.9697 136.098C92.6847 135.782 92.5249 135.366 92.5249 134.919C92.5249 134.471 92.6804 134.052 92.9611 133.737ZM56.337 115.355C56.6198 115.04 56.9977 114.863 57.3972 114.86C57.801 114.86 58.1789 115.028 58.4639 115.344C59.0555 115.99 59.0577 117.05 58.4768 117.7C57.9068 118.337 56.9157 118.339 56.3456 117.715C55.7561 117.066 55.7518 116.009 56.337 115.353V115.355Z" fill="url(#paint0_linear_2137_1644)"/>
<path d="M101.395 101.788C101.698 102.121 102.11 102.307 102.533 102.307L131.528 102.159C132.414 102.159 133.129 101.355 133.126 100.374L133.021 74.4773C134.828 73.7403 136.121 71.8117 136.113 69.553C136.1 66.6697 133.975 64.3368 131.373 64.3511C128.771 64.3655 126.661 66.72 126.674 69.6032C126.683 71.8572 127.992 73.7762 129.805 74.4964L129.905 98.6106L103.183 98.747L88.3768 82.4906L92.2657 78.143C92.7688 78.3392 93.3043 78.4469 93.8549 78.4469C95.116 78.4397 96.2993 77.8893 97.1846 76.8964C99.0179 74.8505 99.0006 71.5342 97.1544 69.5051C96.2604 68.5193 95.075 67.9857 93.8139 67.9881C92.5529 67.9953 91.3696 68.5456 90.4843 69.5386C88.9425 71.259 88.7136 73.8743 89.776 75.8723L84.9672 81.2488C84.341 81.9475 84.3453 83.0745 84.9758 83.7636L101.393 101.793L101.395 101.788ZM131.386 67.9068C132.217 67.902 132.893 68.6485 132.897 69.5697C132.902 70.4886 132.228 71.2399 131.401 71.2471C130.57 71.2518 129.89 70.5053 129.89 69.5841C129.885 68.6653 130.555 67.9116 131.386 67.9068ZM92.7688 72.0415C93.0517 71.7208 93.4252 71.5486 93.829 71.5462C94.2328 71.5414 94.6107 71.7136 94.8957 72.0271C95.4852 72.6755 95.4895 73.7331 94.9087 74.3888C94.6453 74.6831 94.289 74.8338 93.9262 74.8553C93.8506 74.6089 93.7275 74.3768 93.5483 74.1806C93.2309 73.8312 92.8098 73.659 92.3931 73.6661C92.2506 73.1086 92.3737 72.4841 92.7688 72.0438V72.0415Z" fill="url(#paint1_linear_2137_1644)"/>
<path d="M275.619 92.8993L221.399 33.3627C221.097 33.0301 220.689 32.8459 220.263 32.8483L152.064 33.1905C151.634 33.1928 151.228 33.3843 150.928 33.7193L144.806 40.5673L138.628 33.7791C138.326 33.4465 137.914 33.2646 137.488 33.2646L69.2884 33.6068C68.863 33.6116 68.4528 33.8006 68.1526 34.1356L14.4246 94.2177C14.1266 94.5527 13.9582 95.0049 13.9603 95.4787L14.2065 155.893C14.2087 156.37 14.3814 156.819 14.6837 157.152L35.4865 179.998L26.2015 190.38C26.1259 190.464 26.0611 190.557 26.0007 190.655C25.964 190.72 25.9402 190.787 25.9078 190.852C25.8949 190.89 25.8733 190.926 25.856 190.962C25.8279 191.041 25.8128 191.122 25.7934 191.198C25.7869 191.23 25.7739 191.263 25.7739 191.263C25.748 191.409 25.7351 191.526 25.7372 191.644L25.8322 214.681C25.8366 215.152 26.005 215.602 26.3095 215.935L45.6591 237.182C45.9592 237.517 46.3695 237.699 46.7927 237.702L63.5015 237.616L81.8362 257.748C82.1385 258.081 82.5466 258.265 82.972 258.263L115.962 258.1L116.038 276.984C116.042 277.455 116.212 277.905 116.515 278.237L133.681 297.092L133.791 323.958C133.798 324.942 134.519 325.738 135.407 325.731C136.292 325.731 137.007 324.927 137.007 323.946L136.894 296.341C136.89 295.87 136.719 295.42 136.417 295.087L119.246 276.23L119.084 236.022L132.243 221.304C132.863 221.618 133.543 221.792 134.247 221.787C135.506 221.785 136.689 221.235 137.577 220.242C139.41 218.196 139.395 214.88 137.546 212.846C136.65 211.862 135.467 211.326 134.206 211.334C132.945 211.341 131.762 211.891 130.876 212.884C129.44 214.485 129.147 216.863 129.967 218.797L116.338 234.038C116.038 234.373 115.869 234.83 115.869 235.299L115.938 252.022L107.659 242.932C107.947 242.246 108.102 241.497 108.1 240.714C108.093 239.317 107.597 238.006 106.701 237.025C105.805 236.041 104.621 235.505 103.36 235.512C102.099 235.519 100.918 236.065 100.031 237.058C99.1431 238.051 98.6572 239.367 98.6637 240.764C98.6659 242.159 99.1625 243.471 100.059 244.454C100.955 245.437 102.142 245.976 103.399 245.966C104.105 245.966 104.781 245.787 105.396 245.461L113.675 254.551L83.6219 254.702L68.0447 237.592L86.7659 237.498C87.1913 237.494 87.5972 237.304 87.8974 236.969L94.7899 229.262C95.2779 229.444 95.7918 229.545 96.3252 229.542C97.5819 229.535 98.763 228.987 99.6548 227.997C101.484 225.948 101.473 222.63 99.6225 220.601C98.7307 219.62 97.543 219.081 96.282 219.088C95.021 219.096 93.8398 219.641 92.9523 220.634C92.0649 221.627 91.579 222.943 91.5855 224.341C91.5855 225.305 91.8316 226.224 92.2722 227.023L86.0857 233.945L64.1514 234.055L47.4427 234.136L29.0388 213.927L28.9633 195.924L48.6454 217.536C48.9477 217.868 49.3558 218.05 49.7812 218.05L83.2549 217.882C83.6846 217.88 84.0905 217.689 84.3907 217.354L94.5783 205.964C95.198 206.282 95.8739 206.455 96.5757 206.45C97.8367 206.443 99.0178 205.897 99.9075 204.904C101.739 202.854 101.721 199.535 99.8751 197.508C98.979 196.525 97.7957 195.989 96.5346 195.996C95.2736 196.003 94.0925 196.549 93.205 197.542C91.769 199.142 91.4732 201.526 92.2959 203.457L82.579 214.324L67.7316 214.396L67.6949 205.263C69.5022 204.526 70.7956 202.598 70.787 200.339C70.774 197.456 68.6493 195.123 66.0473 195.137C63.4453 195.151 61.34 197.506 61.353 200.389C61.3616 202.643 62.6701 204.562 64.484 205.282L64.5207 214.415L50.4333 214.485L29.6132 191.624L37.7668 182.506L47.231 192.893C47.5312 193.228 47.9415 193.409 48.369 193.412L124.478 193.029L124.513 201.741L114.852 201.789C114.427 201.794 114.016 201.983 113.716 202.318L108.055 208.651C107.435 208.333 106.759 208.158 106.053 208.163C104.796 208.17 103.611 208.716 102.723 209.709C100.894 211.757 100.905 215.076 102.753 217.105C103.65 218.088 104.837 218.627 106.098 218.619C107.359 218.612 108.54 218.067 109.428 217.074C110.862 215.466 111.16 213.09 110.337 211.159L115.532 205.352L126.137 205.294C127.022 205.294 127.741 204.493 127.735 203.509L127.691 193.012L135.62 192.976C136.046 192.971 136.452 192.782 136.752 192.447L145.387 182.793L154.1 192.361C154.406 192.694 154.814 192.881 155.238 192.876L163.162 192.838L163.208 203.33C163.214 204.313 163.933 205.103 164.819 205.1L175.427 205.045L180.668 210.802C179.863 212.745 180.178 215.121 181.625 216.71C182.521 217.693 183.708 218.232 184.969 218.225C186.23 218.217 187.411 217.672 188.299 216.679C189.186 215.686 189.672 214.37 189.666 212.973C189.666 211.578 189.167 210.266 188.271 209.283C187.375 208.299 186.187 207.761 184.926 207.768C184.224 207.773 183.548 207.95 182.931 208.273L177.215 201.999C176.913 201.667 176.505 201.483 176.079 201.485L166.414 201.53L166.38 192.818L242.489 192.436C242.912 192.436 243.325 192.246 243.623 191.912L252.996 181.424L261.228 190.464L240.593 213.532L226.506 213.602L226.469 204.469C228.281 203.732 229.572 201.803 229.561 199.544C229.548 196.661 227.424 194.328 224.822 194.343C222.22 194.357 220.114 196.711 220.127 199.595C220.136 201.849 221.444 203.768 223.258 204.488L223.295 213.621L208.452 213.698L198.644 202.93C198.931 202.243 199.089 201.49 199.085 200.712C199.078 199.315 198.582 198.003 197.69 197.022C196.796 196.037 195.606 195.501 194.347 195.503C193.086 195.51 191.903 196.061 191.018 197.054C189.189 199.102 189.199 202.416 191.048 204.45C191.944 205.433 193.132 205.967 194.393 205.964C195.094 205.959 195.772 205.778 196.388 205.455L206.666 216.744C206.968 217.076 207.381 217.263 207.804 217.258L241.278 217.09C241.703 217.086 242.109 216.899 242.413 216.562L261.916 194.757L261.988 212.76L243.75 233.155L227.041 233.242L205.107 233.352L198.867 226.494C199.946 224.479 199.704 221.835 198.135 220.113C197.241 219.127 196.051 218.591 194.792 218.593C193.535 218.6 192.348 219.151 191.462 220.144C190.577 221.137 190.091 222.448 190.098 223.845C190.104 225.243 190.601 226.554 191.493 227.535C192.387 228.521 193.574 229.059 194.835 229.054C195.366 229.049 195.88 228.947 196.366 228.76L203.321 236.398C203.624 236.73 204.032 236.914 204.457 236.912L223.178 236.819L207.737 254.08L177.688 254.233L185.891 245.059C186.511 245.378 187.187 245.55 187.889 245.545C189.15 245.538 190.333 244.988 191.223 243.995C193.052 241.946 193.036 238.63 191.188 236.603C190.292 235.62 189.109 235.084 187.848 235.091C186.589 235.094 185.405 235.644 184.518 236.637C183.631 237.63 183.147 238.941 183.151 240.343C183.151 241.121 183.315 241.87 183.607 242.554L175.404 251.728L175.334 235.005C175.33 234.534 175.16 234.084 174.857 233.746L161.107 218.646C161.394 217.959 161.547 217.208 161.545 216.432C161.539 215.035 161.042 213.724 160.146 212.738C159.25 211.755 158.066 211.219 156.805 211.226C155.544 211.233 154.361 211.783 153.476 212.776C151.642 214.822 151.658 218.139 153.506 220.168C154.402 221.151 155.585 221.687 156.846 221.685C157.548 221.68 158.226 221.498 158.846 221.175L172.126 235.761L172.288 275.969L155.274 294.996C154.974 295.331 154.808 295.783 154.81 296.255L154.922 323.86C154.922 324.841 155.646 325.638 156.533 325.631C157.421 325.624 158.138 324.829 158.131 323.846L158.021 296.975L175.036 277.953C175.337 277.613 175.501 277.161 175.501 276.692L175.425 257.808L208.411 257.641C208.834 257.641 209.246 257.451 209.544 257.117L227.713 236.8L244.422 236.713C244.845 236.713 245.253 236.522 245.551 236.189L264.73 214.748C265.03 214.413 265.194 213.956 265.194 213.487L265.099 190.45C265.099 190.332 265.088 190.217 265.069 190.105C265.06 190.069 265.052 190.04 265.041 190.009C265.022 189.93 265.004 189.849 264.976 189.772C264.961 189.734 264.939 189.701 264.922 189.662C264.892 189.598 264.862 189.528 264.827 189.466C264.767 189.368 264.7 189.279 264.624 189.191L255.251 178.9L275.868 155.848C276.168 155.508 276.336 155.056 276.332 154.587L276.086 94.1698C276.082 93.6985 275.911 93.2486 275.609 92.9112L275.619 92.8993ZM133.159 215.38C133.444 215.064 133.819 214.887 134.223 214.887C134.627 214.887 135.005 215.059 135.29 215.37C135.879 216.021 135.884 217.076 135.303 217.732C134.735 218.363 133.742 218.371 133.172 217.741C132.58 217.095 132.578 216.035 133.159 215.38ZM102.324 241.92C102.039 241.607 101.879 241.188 101.879 240.74C101.879 240.298 102.028 239.879 102.315 239.558C102.598 239.243 102.976 239.066 103.375 239.063C103.779 239.063 104.157 239.235 104.442 239.546C104.731 239.86 104.887 240.279 104.891 240.726C104.891 241.174 104.736 241.592 104.455 241.908C103.887 242.54 102.894 242.547 102.324 241.918V241.92ZM95.239 223.137C95.5219 222.821 95.8998 222.644 96.2993 222.642C96.7031 222.642 97.0809 222.814 97.366 223.125C97.9576 223.771 97.9598 224.831 97.3789 225.487C96.9881 225.92 96.4029 226.054 95.8868 225.896C95.8372 225.822 95.7918 225.752 95.7314 225.688C95.5392 225.477 95.3125 225.341 95.0663 225.257C94.8979 224.984 94.805 224.659 94.8029 224.319C94.8029 223.872 94.954 223.453 95.239 223.137ZM95.4938 200.044C95.7767 199.729 96.1546 199.552 96.5541 199.549C96.9579 199.549 97.3357 199.717 97.6208 200.033C98.2124 200.679 98.2146 201.739 97.6337 202.389C97.0637 203.026 96.0725 203.028 95.5025 202.404C94.913 201.755 94.9087 200.698 95.4938 200.042V200.044ZM66.0689 198.693C66.8981 198.688 67.5761 199.434 67.5804 200.356C67.5847 201.274 66.911 202.026 66.0797 202.03C65.2483 202.035 64.5725 201.289 64.5682 200.368C64.5638 199.446 65.2376 198.697 66.0689 198.693ZM107.148 214.559C106.584 215.191 105.591 215.2 105.016 214.569C104.431 213.92 104.425 212.862 105.008 212.207C105.291 211.891 105.669 211.714 106.072 211.714C106.476 211.714 106.854 211.886 107.139 212.197C107.731 212.843 107.733 213.903 107.148 214.559ZM186.01 211.802C186.295 212.116 186.455 212.535 186.455 212.982C186.455 213.425 186.304 213.848 186.019 214.164C185.455 214.796 184.462 214.805 183.887 214.174C183.296 213.528 183.294 212.468 183.879 211.812C184.162 211.496 184.54 211.319 184.943 211.319C185.347 211.319 185.725 211.491 186.01 211.802ZM224.841 197.896C225.672 197.891 226.348 198.638 226.353 199.559C226.357 200.478 225.683 201.229 224.852 201.234C224.023 201.238 223.345 200.492 223.34 199.571C223.336 198.65 224.01 197.901 224.841 197.896ZM193.309 201.913C192.719 201.262 192.715 200.207 193.3 199.552C193.583 199.231 193.961 199.059 194.364 199.059C194.764 199.051 195.142 199.224 195.431 199.542C195.716 199.855 195.876 200.274 195.878 200.717C195.878 201.164 195.723 201.583 195.442 201.899C194.878 202.531 193.881 202.538 193.311 201.913H193.309ZM193.749 224.999C193.464 224.685 193.304 224.271 193.302 223.824C193.3 223.376 193.458 222.958 193.738 222.642C194.021 222.326 194.399 222.149 194.803 222.149C195.207 222.149 195.584 222.316 195.87 222.63C196.39 223.204 196.455 224.101 196.057 224.75C195.816 224.831 195.589 224.972 195.394 225.185C195.336 225.252 195.291 225.322 195.243 225.396C194.729 225.558 194.144 225.432 193.749 224.999ZM186.8 239.135C187.083 238.819 187.461 238.642 187.861 238.64C188.264 238.64 188.642 238.807 188.927 239.123C189.519 239.769 189.521 240.829 188.94 241.48C188.37 242.116 187.379 242.119 186.809 241.494C186.524 241.181 186.364 240.762 186.364 240.315C186.364 239.867 186.515 239.448 186.8 239.133V239.135ZM155.769 217.629C155.177 216.983 155.175 215.923 155.756 215.272C156.043 214.951 156.417 214.774 156.82 214.774C157.224 214.774 157.602 214.947 157.887 215.258C158.172 215.573 158.332 215.99 158.332 216.437C158.332 216.885 158.181 217.303 157.896 217.619C157.332 218.251 156.339 218.258 155.769 217.629ZM158.401 54.4908C159.23 54.486 159.91 55.2277 159.915 56.1489C159.919 57.0702 159.245 57.8191 158.414 57.8239C157.583 57.8287 156.907 57.0821 156.9 56.1657C156.896 55.2445 157.57 54.4908 158.401 54.4908ZM131.332 54.6248C132.163 54.62 132.839 55.3665 132.846 56.2829C132.85 57.2042 132.176 57.9531 131.345 57.9579C130.518 57.9627 129.838 57.2161 129.831 56.2997C129.827 55.3785 130.501 54.6295 131.332 54.6248ZM134.942 189.411L78.6922 189.691L85.8439 181.692L102.704 181.611C103.373 183.613 105.114 185.047 107.152 185.035C109.752 185.025 111.859 182.668 111.846 179.787C111.833 176.904 109.709 174.566 107.107 174.581C105.068 174.59 103.341 176.04 102.691 178.05L85.1615 178.139C84.7362 178.144 84.3302 178.333 84.0301 178.668L74.1469 189.715L49.019 189.839L17.4152 155.14L17.3721 143.848L26.4844 143.8L43.7977 162.816C43.4501 163.555 43.2665 164.383 43.2709 165.239C43.2773 166.637 43.774 167.948 44.6701 168.929C45.5641 169.915 46.7495 170.453 48.0106 170.446C49.2716 170.439 50.4549 169.889 51.3445 168.896C53.1735 166.847 53.1584 163.531 51.31 161.504C50.416 160.519 49.2306 159.985 47.9695 159.987C47.3347 159.987 46.7258 160.133 46.1579 160.394L28.2701 140.752C27.9678 140.422 27.5597 140.235 27.1343 140.238L17.3548 140.283L17.1734 96.1917L26.9076 85.3095L43.8927 103.961L36.4906 112.233L29.1274 104.148C29.4145 103.461 29.5722 102.712 29.5679 101.93C29.5614 100.532 29.0691 99.2233 28.1729 98.2399C27.2768 97.2565 26.0892 96.7181 24.8282 96.7253C23.5671 96.7325 22.386 97.278 21.4985 98.271C19.6696 100.319 19.6804 103.633 21.5287 105.667C22.4249 106.65 23.6125 107.189 24.8735 107.182C25.5753 107.182 26.2512 107 26.8687 106.677L35.3721 116.016C35.6874 116.36 36.0998 116.535 36.5101 116.53C36.9225 116.528 37.3306 116.351 37.6458 116.001L55.5962 95.9261L66.2805 107.653C65.9933 108.34 65.8357 109.093 65.84 109.871C65.8465 111.268 66.3388 112.577 67.2349 113.561C68.131 114.544 69.3187 115.083 70.5775 115.08C71.8386 115.073 73.0219 114.523 73.9072 113.53C75.7361 111.481 75.7253 108.167 73.877 106.134C72.9809 105.15 71.7932 104.612 70.5322 104.619C69.8304 104.624 69.1545 104.801 68.537 105.129L56.7169 92.1456C56.0864 91.4564 55.0694 91.4612 54.4431 92.1599L46.1514 101.434L29.1662 82.7827L53.3397 55.7494L70.3249 74.4009L63.5252 82.0003L56.1576 73.9152C56.9674 71.9746 56.6521 69.5962 55.2011 68.0074C54.3093 67.0264 53.1216 66.488 51.8606 66.4952C50.6017 66.4976 49.4184 67.0479 48.5309 68.0409C46.702 70.0891 46.7128 73.4031 48.5612 75.4369C49.4573 76.4204 50.6449 76.9587 51.9016 76.9492C52.6077 76.9444 53.2836 76.7697 53.899 76.4443L62.4045 85.7784C62.7198 86.1278 63.1322 86.2977 63.5425 86.2977C63.9549 86.2953 64.363 86.1182 64.674 85.7689L83.7601 64.4303C84.0603 64.0905 84.2287 63.6383 84.2244 63.1693L84.1834 53.079C84.1769 52.0956 83.4578 51.306 82.5682 51.306L72.8513 51.3563C72.1819 49.3535 70.4415 47.9203 68.4031 47.9298C65.8011 47.9442 63.6958 50.2987 63.7088 53.1819C63.7217 56.0652 65.8465 58.3981 68.4484 58.3886C70.4825 58.3742 72.2143 56.9242 72.8642 54.9143L80.9789 54.876L81.0113 62.4491L72.5835 71.8717L55.5984 53.2226L69.9621 37.1624L97.1544 37.0213L97.2494 60.5014C97.2494 61.4824 97.9749 62.2744 98.8624 62.2696L112.667 62.2002L112.732 77.8847C110.924 78.6265 109.631 80.5551 109.64 82.8138C109.652 85.6971 111.777 88.03 114.379 88.0157C116.981 88.0013 119.091 85.6468 119.078 82.7636C119.065 80.5048 117.759 78.5906 115.947 77.8704L115.871 60.4057C115.871 59.4198 115.148 58.6278 114.26 58.635L100.456 58.7044L100.367 37.0069L129.648 36.8585L129.706 51.3874C127.899 52.1243 126.605 54.0577 126.614 56.3117C126.627 59.1949 128.752 61.5326 131.354 61.5183C133.956 61.5039 136.061 59.1495 136.048 56.2662C136.039 54.0074 134.731 52.0932 132.917 51.3682L132.856 36.8442L136.832 36.825L143.206 43.8239L143.459 110.027L124.614 110.12C124.185 110.122 123.779 110.314 123.479 110.649L108.707 127.166L89.9271 106.543C89.2966 105.849 88.2839 105.856 87.6577 106.552L65.6176 131.2C64.9979 130.882 64.3177 130.712 63.6159 130.712C62.3549 130.719 61.1716 131.27 60.2862 132.263C58.4573 134.311 58.4681 137.625 60.3165 139.654C61.2104 140.64 62.4002 141.176 63.6591 141.173C64.9158 141.166 66.1034 140.616 66.9888 139.623C67.8741 138.63 68.3599 137.318 68.3534 135.921C68.3491 135.139 68.1915 134.39 67.8978 133.708L88.8064 110.323L107.586 130.946C108.217 131.64 109.234 131.636 109.86 130.937L125.29 113.676L143.469 113.585L143.523 127.908L131.621 127.97C131.194 127.97 130.786 128.159 130.488 128.494L99.4324 163.222L70.381 163.368C69.7117 161.366 67.9712 159.932 65.9372 159.942C63.3352 159.956 61.2256 162.311 61.2385 165.194C61.2515 168.077 63.3762 170.41 65.9782 170.401C68.0166 170.386 69.744 168.939 70.394 166.926L100.11 166.778C100.538 166.778 100.946 166.589 101.244 166.254L110.179 156.259L120.741 167.855C121.056 168.204 121.468 168.374 121.878 168.374C122.278 168.374 122.675 168.206 122.98 167.879L132.69 157.575C133.219 157.798 133.783 157.915 134.368 157.91C135.629 157.903 136.81 157.358 137.698 156.365C139.529 154.317 139.516 150.998 137.667 148.969C136.771 147.985 135.584 147.447 134.323 147.454C133.062 147.461 131.88 148.007 130.993 149C129.475 150.699 129.229 153.261 130.237 155.245L121.887 164.105L112.438 153.728L132.297 131.521L143.536 131.463L143.718 179.579L134.932 189.409L134.942 189.411ZM105.621 179.819C105.617 178.897 106.29 178.144 107.124 178.139C107.951 178.134 108.631 178.881 108.635 179.802C108.64 180.723 107.966 181.472 107.135 181.477C106.306 181.481 105.628 180.735 105.621 179.819ZM46.9223 164.045C47.2051 163.73 47.5787 163.553 47.9825 163.55C48.3863 163.545 48.7642 163.718 49.0492 164.029C49.6387 164.68 49.643 165.74 49.0621 166.39C48.4921 167.027 47.501 167.029 46.9309 166.405C46.6437 166.087 46.4861 165.673 46.4861 165.225C46.4818 164.778 46.6372 164.359 46.9223 164.043V164.045ZM23.7917 103.143C23.2 102.497 23.1979 101.437 23.7831 100.781C24.0659 100.465 24.4438 100.288 24.8476 100.288C25.2471 100.288 25.6293 100.46 25.9143 100.771C26.1993 101.085 26.3591 101.504 26.3591 101.951C26.3591 102.394 26.2037 102.817 25.9229 103.133C25.3594 103.765 24.3661 103.774 23.7917 103.143ZM70.5559 108.182C70.9597 108.182 71.3376 108.354 71.6226 108.665C72.2121 109.314 72.2165 110.371 71.6313 111.027C71.0655 111.663 70.0744 111.668 69.5 111.036C69.215 110.723 69.0552 110.304 69.0531 109.862C69.0531 109.414 69.2085 108.995 69.4892 108.68C69.7721 108.359 70.15 108.187 70.5538 108.182H70.5559ZM50.8306 72.9102C50.2411 72.2618 50.2368 71.2042 50.822 70.5485C51.1049 70.2327 51.4827 70.0556 51.8822 70.0532C52.286 70.0532 52.6639 70.2255 52.9489 70.5366C53.5406 71.1826 53.5427 72.2426 52.9619 72.8982C52.394 73.5299 51.4028 73.5323 50.8306 72.9078V72.9102ZM69.9427 53.1532C69.947 54.0744 69.2733 54.8234 68.442 54.8281C67.6128 54.8329 66.9348 54.0864 66.9283 53.17C66.924 52.2488 67.5977 51.495 68.429 51.4903C69.256 51.4903 69.9362 52.232 69.9405 53.1532H69.9427ZM114.36 81.1221C115.191 81.1174 115.867 81.8639 115.871 82.7851C115.876 83.7039 115.202 84.4552 114.375 84.4624C113.544 84.4672 112.868 83.7207 112.863 82.7995C112.859 81.8783 113.533 81.1293 114.36 81.1221ZM64.7085 134.758C64.9936 135.074 65.1533 135.49 65.1533 135.938C65.1533 136.385 64.9979 136.804 64.7172 137.12C64.1536 137.751 63.1603 137.761 62.5859 137.134C61.9964 136.483 61.9921 135.423 62.5773 134.773C62.8601 134.457 63.238 134.28 63.6418 134.28C64.0413 134.272 64.4235 134.447 64.7085 134.761V134.758ZM67.4724 165.165C67.4768 166.087 66.8031 166.835 65.976 166.843C65.1447 166.847 64.4645 166.101 64.4624 165.184C64.458 164.263 65.1317 163.51 65.9588 163.507C66.7901 163.502 67.4681 164.244 67.4724 165.165ZM133.286 151.51C133.569 151.194 133.947 151.017 134.351 151.017C134.75 151.017 135.128 151.187 135.417 151.5C136.007 152.151 136.011 153.206 135.426 153.862C135.225 154.087 134.973 154.226 134.705 154.295C134.649 153.977 134.51 153.675 134.299 153.426C133.915 152.981 133.377 152.809 132.869 152.9C132.811 152.41 132.949 151.895 133.288 151.512L133.286 151.51ZM241.811 188.873L216.687 189L206.714 178.053C206.411 177.72 206.003 177.536 205.576 177.533L188.051 177.622C187.381 175.619 185.641 174.186 183.602 174.196C181 174.21 178.895 176.564 178.908 179.448C178.921 182.331 181.046 184.664 183.648 184.654C185.686 184.64 187.414 183.192 188.064 181.18L204.928 181.099L212.144 189.023L155.892 189.308L146.939 179.479L146.756 131.456L158.049 131.399L178.09 153.405L168.729 163.876L160.306 155.104C160.694 154.331 160.902 153.458 160.897 152.553C160.891 151.156 160.394 149.844 159.502 148.863C158.608 147.878 157.421 147.339 156.16 147.344C154.899 147.349 153.715 147.902 152.83 148.895C150.997 150.94 151.014 154.257 152.86 156.286C153.754 157.272 154.944 157.808 156.201 157.803C156.784 157.8 157.347 157.674 157.876 157.449L167.669 167.654C167.98 167.979 168.377 168.139 168.774 168.135C169.187 168.132 169.599 167.955 169.91 167.606L180.376 155.903L189.396 165.804C189.698 166.137 190.106 166.321 190.53 166.323L220.246 166.175C220.915 168.178 222.656 169.611 224.694 169.599C227.294 169.589 229.401 167.233 229.389 164.352C229.376 161.468 227.251 159.131 224.649 159.145C222.61 159.155 220.883 160.605 220.233 162.615L191.182 162.761L159.841 128.348C159.539 128.015 159.131 127.831 158.701 127.834L146.749 127.889L146.695 113.57L164.918 113.479L180.491 130.578C181.121 131.272 182.138 131.267 182.76 130.568L201.371 109.759L222.477 132.932C221.667 134.873 221.986 137.247 223.433 138.835C224.327 139.821 225.513 140.36 226.774 140.352C228.035 140.345 229.218 139.795 230.108 138.802C231.939 136.754 231.921 133.437 230.073 131.411C229.179 130.425 227.994 129.891 226.733 129.894C226.026 129.898 225.348 130.078 224.733 130.403L202.49 105.98C201.859 105.287 200.847 105.294 200.221 105.99L181.609 126.8L166.704 110.433C166.401 110.101 165.993 109.917 165.566 109.914L146.683 110.01L146.43 43.8071L152.746 36.7437L156.721 36.7246L156.784 51.2558C154.972 51.9927 153.681 53.9213 153.692 56.18C153.705 59.0633 155.829 61.3963 158.431 61.3867C161.033 61.3723 163.139 59.0179 163.126 56.1346C163.117 53.8758 161.809 51.9616 159.995 51.2366L159.934 36.7126L189.215 36.5642L189.303 58.2618L175.499 58.3311C174.611 58.3383 173.894 59.1327 173.898 60.1209L173.97 77.5832C172.158 78.3202 170.869 80.2488 170.878 82.5075C170.891 85.3908 173.015 87.7237 175.617 87.7094C178.217 87.6998 180.325 85.343 180.312 82.4621C180.303 80.2033 178.994 78.2891 177.181 77.5641L177.116 61.8796L190.92 61.8102C191.812 61.8054 192.525 61.0086 192.52 60.0252L192.425 36.5451L219.615 36.4087L234.109 52.3253L217.279 71.1467L208.771 61.8054L208.743 54.23L216.854 54.1917C217.523 56.1944 219.264 57.6277 221.302 57.6181C223.904 57.6037 226.009 55.2493 225.996 52.366C225.983 49.4827 223.859 47.145 221.257 47.1594C219.218 47.1737 217.491 48.6189 216.841 50.6289L207.12 50.6767C206.232 50.6839 205.517 51.4855 205.519 52.4665L205.561 62.5567C205.565 63.0281 205.735 63.478 206.038 63.8105L225.297 84.9625C225.599 85.2951 226.007 85.477 226.432 85.477C226.862 85.4746 227.268 85.2831 227.568 84.9482L235.996 75.5255C236.616 75.8437 237.292 76.016 237.993 76.0112C239.254 76.004 240.436 75.4585 241.323 74.4655C242.213 73.4749 242.699 72.1589 242.692 70.7615C242.686 69.3641 242.189 68.0529 241.293 67.0719C240.397 66.0885 239.213 65.5525 237.952 65.5597C236.691 65.5668 235.51 66.1124 234.623 67.1054C233.187 68.7061 232.891 71.0893 233.711 73.0203L226.415 81.1796L219.551 73.6496L236.383 54.8281L260.778 81.615L243.947 100.436L235.579 91.2459C234.949 90.5568 233.932 90.5616 233.31 91.2602L221.593 104.358C220.974 104.04 220.298 103.868 219.596 103.872C218.335 103.88 217.154 104.425 216.266 105.418C215.377 106.409 214.891 107.725 214.895 109.122C214.902 110.52 215.398 111.831 216.294 112.812C217.191 113.795 218.374 114.331 219.635 114.324C220.894 114.322 222.077 113.771 222.965 112.778C224.4 111.178 224.696 108.794 223.876 106.863L234.461 95.0288L252.582 114.922C252.897 115.272 253.309 115.441 253.715 115.441C254.128 115.439 254.54 115.262 254.851 114.913L263.279 105.49C263.899 105.808 264.575 105.98 265.281 105.978C266.537 105.971 267.725 105.421 268.61 104.428C270.439 102.379 270.428 99.0654 268.58 97.0364C267.684 96.0529 266.496 95.5146 265.235 95.5217C263.976 95.5241 262.793 96.0745 261.906 97.0675C260.474 98.6706 260.174 101.051 260.997 102.982L253.7 111.142L246.231 102.942L263.063 84.1203L272.884 94.9068L273.065 138.998L263.285 139.048C262.862 139.048 262.454 139.24 262.156 139.572L244.43 159.394C243.862 159.138 243.249 159.006 242.619 159.009C241.36 159.011 240.176 159.561 239.289 160.554C238.399 161.545 237.918 162.859 237.92 164.256C237.926 165.653 238.423 166.965 239.319 167.95C240.215 168.934 241.403 169.472 242.66 169.463C243.921 169.455 245.104 168.905 245.989 167.912C246.879 166.922 247.365 165.608 247.358 164.211C247.352 163.349 247.162 162.524 246.81 161.787L263.966 142.602L273.078 142.554L273.125 153.848L241.807 188.866L241.811 188.873ZM185.131 179.417C185.136 180.338 184.462 181.087 183.635 181.094C182.804 181.099 182.123 180.352 182.119 179.433C182.115 178.512 182.788 177.758 183.62 177.758C184.451 177.754 185.127 178.5 185.133 179.417H185.131ZM156.244 153.312C156.032 153.565 155.898 153.869 155.844 154.183C155.575 154.12 155.322 153.982 155.119 153.761C154.529 153.111 154.525 152.051 155.11 151.4C155.393 151.079 155.771 150.907 156.171 150.904C156.574 150.9 156.952 151.072 157.237 151.388C157.527 151.701 157.686 152.118 157.689 152.563C157.689 152.632 157.676 152.699 157.669 152.766C157.162 152.675 156.626 152.862 156.246 153.307L156.244 153.312ZM223.159 164.385C223.155 163.464 223.828 162.71 224.66 162.706C225.489 162.701 226.167 163.447 226.171 164.368C226.175 165.29 225.502 166.039 224.67 166.043C223.839 166.048 223.163 165.302 223.157 164.385H223.159ZM226.739 133.456C227.143 133.456 227.521 133.624 227.806 133.94C228.397 134.586 228.4 135.646 227.819 136.297C227.249 136.933 226.258 136.936 225.687 136.311C225.098 135.66 225.094 134.605 225.674 133.949C225.96 133.634 226.335 133.456 226.739 133.456ZM175.587 80.8135C176.416 80.8087 177.094 81.5552 177.099 82.4764C177.103 83.3976 176.429 84.1466 175.598 84.1514C174.769 84.1562 174.091 83.4096 174.084 82.4932C174.08 81.572 174.754 80.8183 175.585 80.8135H175.587ZM219.773 52.4019C219.769 51.4807 220.442 50.727 221.274 50.727C222.103 50.7222 222.781 51.4687 222.788 52.3851C222.792 53.3064 222.118 54.0553 221.287 54.0601C220.458 54.0649 219.777 53.3183 219.773 52.4019ZM236.905 69.613C237.19 69.2971 237.57 69.1225 237.97 69.1201C238.373 69.1201 238.751 69.2924 239.036 69.6034C239.326 69.9169 239.481 70.3356 239.485 70.783C239.485 71.2257 239.332 71.6444 239.049 71.9651C238.481 72.5967 237.488 72.6039 236.918 71.9746C236.329 71.3262 236.324 70.2686 236.905 69.613ZM220.68 107.919C221.27 108.569 221.274 109.625 220.693 110.28C220.125 110.912 219.132 110.919 218.564 110.29C218.275 109.976 218.119 109.558 218.119 109.11C218.113 108.668 218.268 108.249 218.553 107.928C218.838 107.612 219.214 107.435 219.618 107.435C220.021 107.435 220.399 107.608 220.684 107.919H220.68ZM264.201 101.937C263.611 101.288 263.607 100.231 264.192 99.5751C264.475 99.2592 264.853 99.0822 265.253 99.0798C265.656 99.0798 266.039 99.2473 266.324 99.5655C266.911 100.209 266.915 101.272 266.332 101.927C265.769 102.559 264.778 102.564 264.201 101.937ZM244.152 164.232C244.15 164.677 243.996 165.098 243.716 165.414C243.146 166.051 242.154 166.053 241.584 165.428C241.299 165.113 241.14 164.696 241.14 164.249C241.135 163.801 241.291 163.383 241.576 163.067C241.859 162.751 242.236 162.574 242.636 162.572C243.04 162.572 243.418 162.739 243.703 163.055C243.992 163.368 244.147 163.787 244.154 164.23L244.152 164.232Z" fill="url(#paint2_linear_2137_1644)"/>
<path d="M251.748 136.426C252.375 135.727 252.37 134.6 251.74 133.906L237.11 117.841C237.398 117.155 237.551 116.403 237.551 115.623C237.544 114.226 237.048 112.915 236.152 111.934C235.256 110.953 234.068 110.412 232.811 110.421C231.55 110.429 230.369 110.974 229.479 111.967C227.65 114.015 227.661 117.334 229.512 119.363C230.408 120.347 231.591 120.883 232.852 120.875C233.558 120.875 234.234 120.696 234.85 120.37L248.339 135.184L236.894 147.983L211.13 148.11L200.635 136.589C201.445 134.648 201.125 132.27 199.679 130.681C198.783 129.697 197.595 129.159 196.334 129.166C195.073 129.173 193.892 129.719 193.004 130.712C192.117 131.705 191.631 133.021 191.637 134.418C191.644 135.816 192.141 137.127 193.032 138.108C193.928 139.091 195.116 139.63 196.377 139.623C197.079 139.623 197.755 139.441 198.374 139.118L209.335 151.158C209.637 151.491 210.05 151.672 210.473 151.672L237.57 151.536C237.996 151.531 238.402 151.342 238.702 151.007L251.744 136.423L251.748 136.426ZM231.766 116.834C231.181 116.186 231.174 115.128 231.757 114.472C232.04 114.156 232.418 113.979 232.822 113.979C233.226 113.979 233.604 114.152 233.889 114.463C234.174 114.776 234.333 115.195 234.333 115.642C234.333 116.085 234.184 116.506 233.897 116.824C233.334 117.456 232.34 117.463 231.766 116.834ZM195.295 135.581C195.01 135.268 194.85 134.849 194.85 134.402C194.848 133.959 195.004 133.54 195.287 133.22C195.57 132.904 195.947 132.727 196.351 132.727C196.755 132.727 197.133 132.899 197.418 133.21C198.007 133.858 198.012 134.916 197.427 135.572C196.861 136.208 195.87 136.213 195.295 135.581Z" fill="url(#paint3_linear_2137_1644)"/>
<path d="M200.128 75.3172C200.542 74.5205 200.765 73.6184 200.763 72.678C200.756 71.2807 200.264 69.9718 199.368 68.9884C198.474 68.0026 197.286 67.4642 196.025 67.469C194.764 67.4762 193.581 68.0265 192.695 69.0195C190.864 71.0677 190.877 74.3817 192.724 76.4155C193.62 77.3989 194.807 77.9325 196.068 77.9301C196.619 77.9254 197.154 77.8153 197.658 77.6119L201.581 81.9213L186.911 98.3236L160.187 98.4576L160.088 74.3386C161.899 73.6016 163.188 71.6731 163.18 69.4143C163.167 66.5311 161.042 64.1981 158.44 64.2125C155.838 64.2268 153.733 66.5813 153.746 69.4646C153.754 71.7185 155.063 73.6375 156.877 74.3578L156.983 100.25C156.987 101.238 157.706 102.028 158.593 102.02L187.587 101.874C188.014 101.874 188.422 101.685 188.72 101.35L204.991 83.1583C205.612 82.4596 205.608 81.3326 204.978 80.6387L200.128 75.3149V75.3172ZM194.976 71.5271C195.259 71.2065 195.636 71.0342 196.04 71.0342C196.44 71.027 196.822 71.2017 197.107 71.5176C197.392 71.831 197.552 72.2449 197.554 72.6924C197.554 72.8455 197.53 72.9963 197.496 73.1398C197.077 73.1375 196.66 73.3097 196.345 73.6639C196.168 73.8625 196.042 74.0946 195.969 74.3482C195.606 74.3243 195.25 74.1759 194.984 73.8888C194.395 73.2403 194.391 72.1827 194.976 71.5271ZM158.455 67.7729C159.284 67.7681 159.962 68.5146 159.967 69.4359C159.971 70.3547 159.297 71.106 158.466 71.1108C157.637 71.1156 156.959 70.369 156.955 69.4478C156.95 68.529 157.622 67.7753 158.455 67.7729Z" fill="url(#paint4_linear_2137_1644)"/>
<path style="mix-blend-mode:screen" d="M279.999 256.927C280.331 338.884 220.65 405.628 146.683 405.998C72.7218 406.367 12.492 340.226 12.153 258.267C11.8162 176.308 71.5039 109.567 145.469 109.196C219.432 108.823 279.662 174.964 279.996 256.925L279.999 256.927Z" fill="url(#paint5_radial_2137_1644)"/>
<path style="mix-blend-mode:screen" d="M274.531 135.328C274.65 164.502 253.398 188.267 227.07 188.399C200.737 188.528 179.293 164.986 179.172 135.804C179.055 106.624 200.305 82.864 226.633 82.7324C252.968 82.5984 274.41 106.145 274.531 135.328Z" fill="url(#paint6_radial_2137_1644)"/>
<path style="mix-blend-mode:screen" d="M141.721 72.0273C141.837 101.207 120.587 124.967 94.2568 125.103C67.9239 125.233 46.482 101.686 46.3589 72.5083C46.2423 43.3286 67.4921 19.5686 93.8227 19.4322C120.156 19.303 141.598 42.8501 141.721 72.0273Z" fill="url(#paint7_radial_2137_1644)"/>
<path style="mix-blend-mode:screen" d="M95.358 165.122C95.4746 194.302 74.2291 218.064 47.8963 218.193C21.5613 218.33 0.119294 194.78 0.000531929 165.601C-0.122549 136.423 21.1294 112.659 47.4622 112.529C73.7907 112.398 95.2392 135.942 95.3558 165.122H95.358Z" fill="url(#paint8_radial_2137_1644)"/>
<path style="mix-blend-mode:screen" d="M269.269 52.5957C269.392 81.773 248.14 105.538 221.807 105.667C195.474 105.796 174.03 82.2539 173.913 53.0743C173.79 23.8922 195.042 0.132171 221.375 0.000569042C247.71 -0.133425 269.152 23.4137 269.269 52.5933V52.5957Z" fill="url(#paint9_radial_2137_1644)"/>
<path style="mix-blend-mode:screen" d="M232.459 213.068C232.576 242.248 211.326 266.008 184.993 266.14C158.662 266.276 137.221 242.726 137.1 213.547C136.983 184.367 158.228 160.605 184.561 160.476C210.894 160.346 232.338 183.889 232.459 213.071V213.068Z" fill="url(#paint10_radial_2137_1644)"/>
<path style="mix-blend-mode:screen" d="M182.456 152.225C182.573 181.405 161.323 205.165 134.99 205.297C108.659 205.433 87.2173 181.884 87.0964 152.704C86.9798 123.524 108.225 99.7618 134.558 99.6326C160.891 99.5034 182.335 123.046 182.456 152.228V152.225Z" fill="url(#paint11_radial_2137_1644)"/>
<path style="mix-blend-mode:screen" d="M153.534 213.02C153.651 242.2 132.401 265.96 106.07 266.096C79.7374 266.228 58.2954 242.678 58.1724 213.501C58.0557 184.322 79.3055 160.561 105.636 160.425C131.969 160.296 153.411 183.843 153.534 213.02Z" fill="url(#paint12_radial_2137_1644)"/>
<defs>
<linearGradient id="paint0_linear_2137_1644" x1="68.071" y1="36.8135" x2="69.4827" y2="317.551" gradientUnits="userSpaceOnUse">
<stop stop-color="#00FFEB"/>
<stop offset="0.53" stop-color="#0085FF"/>
<stop offset="0.61" stop-color="#0080F8"/>
<stop offset="0.71" stop-color="#0073E6"/>
<stop offset="0.84" stop-color="#005DC7"/>
<stop offset="0.98" stop-color="#00409E"/>
<stop offset="1" stop-color="#003B97"/>
</linearGradient>
<linearGradient id="paint1_linear_2137_1644" x1="110.16" y1="36.6015" x2="111.572" y2="317.354" gradientUnits="userSpaceOnUse">
<stop stop-color="#00FFEB"/>
<stop offset="0.53" stop-color="#0085FF"/>
<stop offset="0.61" stop-color="#0080F8"/>
<stop offset="0.71" stop-color="#0073E6"/>
<stop offset="0.84" stop-color="#005DC7"/>
<stop offset="0.98" stop-color="#00409E"/>
<stop offset="1" stop-color="#003B97"/>
</linearGradient>
<linearGradient id="paint2_linear_2137_1644" x1="144.81" y1="36.425" x2="146.222" y2="317.163" gradientUnits="userSpaceOnUse">
<stop stop-color="#00FFEB"/>
<stop offset="0.53" stop-color="#0085FF"/>
<stop offset="0.61" stop-color="#0080F8"/>
<stop offset="0.71" stop-color="#0073E6"/>
<stop offset="0.84" stop-color="#005DC7"/>
<stop offset="0.98" stop-color="#00409E"/>
<stop offset="1" stop-color="#003B97"/>
</linearGradient>
<linearGradient id="paint3_linear_2137_1644" x1="221.549" y1="36.0391" x2="222.961" y2="316.777" gradientUnits="userSpaceOnUse">
<stop stop-color="#00FFEB"/>
<stop offset="0.53" stop-color="#0085FF"/>
<stop offset="0.61" stop-color="#0080F8"/>
<stop offset="0.71" stop-color="#0073E6"/>
<stop offset="0.84" stop-color="#005DC7"/>
<stop offset="0.98" stop-color="#00409E"/>
<stop offset="1" stop-color="#003B97"/>
</linearGradient>
<linearGradient id="paint4_linear_2137_1644" x1="179.458" y1="36.2555" x2="180.87" y2="316.972" gradientUnits="userSpaceOnUse">
<stop stop-color="#00FFEB"/>
<stop offset="0.53" stop-color="#0085FF"/>
<stop offset="0.61" stop-color="#0080F8"/>
<stop offset="0.71" stop-color="#0073E6"/>
<stop offset="0.84" stop-color="#005DC7"/>
<stop offset="0.98" stop-color="#00409E"/>
<stop offset="1" stop-color="#003B97"/>
</linearGradient>
<radialGradient id="paint5_radial_2137_1644" cx="0" cy="0" r="1" gradientUnits="userSpaceOnUse" gradientTransform="translate(146.217 257.621) rotate(-0.288108) scale(133.717 148.172)">
<stop offset="0.11" stop-color="white"/>
<stop offset="0.12" stop-color="#A700FF"/>
<stop offset="0.13" stop-color="#A200F8" stop-opacity="0.9604"/>
<stop offset="0.2" stop-color="#8100C5" stop-opacity="0.5929"/>
<stop offset="0.27" stop-color="#620096" stop-opacity="0.3481"/>
<stop offset="0.35" stop-color="#47006D" stop-opacity="0.1849"/>
<stop offset="0.43" stop-color="#31004B" stop-opacity="0.09"/>
<stop offset="0.51" stop-color="#1F0030" stop-opacity="0.0361"/>
<stop offset="0.6" stop-color="#11001A" stop-opacity="0.01"/>
<stop offset="0.71" stop-color="#07000B" stop-opacity="0.01"/>
<stop offset="0.82" stop-color="#010002" stop-opacity="0.01"/>
<stop offset="1" stop-opacity="0"/>
</radialGradient>
<radialGradient id="paint6_radial_2137_1644" cx="0" cy="0" r="1" gradientUnits="userSpaceOnUse" gradientTransform="translate(226.869 135.776) rotate(-0.288108) scale(47.6075 52.7541)">
<stop offset="0.11" stop-color="white"/>
<stop offset="0.12" stop-color="#A700FF"/>
<stop offset="0.13" stop-color="#A200F8" stop-opacity="0.9604"/>
<stop offset="0.2" stop-color="#8100C5" stop-opacity="0.5929"/>
<stop offset="0.27" stop-color="#620096" stop-opacity="0.3481"/>
<stop offset="0.35" stop-color="#47006D" stop-opacity="0.1849"/>
<stop offset="0.43" stop-color="#31004B" stop-opacity="0.09"/>
<stop offset="0.51" stop-color="#1F0030" stop-opacity="0.0361"/>
<stop offset="0.6" stop-color="#11001A" stop-opacity="0.01"/>
<stop offset="0.71" stop-color="#07000B" stop-opacity="0.01"/>
<stop offset="0.82" stop-color="#010002" stop-opacity="0.01"/>
<stop offset="1" stop-opacity="0"/>
</radialGradient>
<radialGradient id="paint7_radial_2137_1644" cx="0" cy="0" r="1" gradientUnits="userSpaceOnUse" gradientTransform="translate(94.2638 72.5741) rotate(-0.288108) scale(47.6075 52.7541)">
<stop offset="0.11" stop-color="white"/>
<stop offset="0.12" stop-color="#A700FF"/>
<stop offset="0.13" stop-color="#A200F8" stop-opacity="0.9604"/>
<stop offset="0.2" stop-color="#8100C5" stop-opacity="0.5929"/>
<stop offset="0.27" stop-color="#620096" stop-opacity="0.3481"/>
<stop offset="0.35" stop-color="#47006D" stop-opacity="0.1849"/>
<stop offset="0.43" stop-color="#31004B" stop-opacity="0.09"/>
<stop offset="0.51" stop-color="#1F0030" stop-opacity="0.0361"/>
<stop offset="0.6" stop-color="#11001A" stop-opacity="0.01"/>
<stop offset="0.71" stop-color="#07000B" stop-opacity="0.01"/>
<stop offset="0.82" stop-color="#010002" stop-opacity="0.01"/>
<stop offset="1" stop-opacity="0"/>
</radialGradient>
<radialGradient id="paint8_radial_2137_1644" cx="0" cy="0" r="1" gradientUnits="userSpaceOnUse" gradientTransform="translate(47.9718 165.526) rotate(-0.288108) scale(47.6036 52.7497)">
<stop offset="0.11" stop-color="white"/>
<stop offset="0.12" stop-color="#A700FF"/>
<stop offset="0.13" stop-color="#A200F8" stop-opacity="0.9604"/>
<stop offset="0.2" stop-color="#8100C5" stop-opacity="0.5929"/>
<stop offset="0.27" stop-color="#620096" stop-opacity="0.3481"/>
<stop offset="0.35" stop-color="#47006D" stop-opacity="0.1849"/>
<stop offset="0.43" stop-color="#31004B" stop-opacity="0.09"/>
<stop offset="0.51" stop-color="#1F0030" stop-opacity="0.0361"/>
<stop offset="0.6" stop-color="#11001A" stop-opacity="0.01"/>
<stop offset="0.71" stop-color="#07000B" stop-opacity="0.01"/>
<stop offset="0.82" stop-color="#010002" stop-opacity="0.01"/>
<stop offset="1" stop-opacity="0"/>
</radialGradient>
<radialGradient id="paint9_radial_2137_1644" cx="0" cy="0" r="1" gradientUnits="userSpaceOnUse" gradientTransform="translate(221.618 53.1729) rotate(-0.288108) scale(47.6036 52.7497)">
<stop offset="0.11" stop-color="white"/>
<stop offset="0.12" stop-color="#A700FF"/>
<stop offset="0.13" stop-color="#A200F8" stop-opacity="0.9604"/>
<stop offset="0.2" stop-color="#8100C5" stop-opacity="0.5929"/>
<stop offset="0.27" stop-color="#620096" stop-opacity="0.3481"/>
<stop offset="0.35" stop-color="#47006D" stop-opacity="0.1849"/>
<stop offset="0.43" stop-color="#31004B" stop-opacity="0.09"/>
<stop offset="0.51" stop-color="#1F0030" stop-opacity="0.0361"/>
<stop offset="0.6" stop-color="#11001A" stop-opacity="0.01"/>
<stop offset="0.71" stop-color="#07000B" stop-opacity="0.01"/>
<stop offset="0.82" stop-color="#010002" stop-opacity="0.01"/>
<stop offset="1" stop-opacity="0"/>
</radialGradient>
<radialGradient id="paint10_radial_2137_1644" cx="0" cy="0" r="1" gradientUnits="userSpaceOnUse" gradientTransform="translate(184.861 213.399) rotate(-0.288108) scale(47.6075 52.7541)">
<stop offset="0.11" stop-color="white"/>
<stop offset="0.12" stop-color="#A700FF"/>
<stop offset="0.13" stop-color="#A200F8" stop-opacity="0.9604"/>
<stop offset="0.2" stop-color="#8100C5" stop-opacity="0.5929"/>
<stop offset="0.27" stop-color="#620096" stop-opacity="0.3481"/>
<stop offset="0.35" stop-color="#47006D" stop-opacity="0.1849"/>
<stop offset="0.43" stop-color="#31004B" stop-opacity="0.09"/>
<stop offset="0.51" stop-color="#1F0030" stop-opacity="0.0361"/>
<stop offset="0.6" stop-color="#11001A" stop-opacity="0.01"/>
<stop offset="0.71" stop-color="#07000B" stop-opacity="0.01"/>
<stop offset="0.82" stop-color="#010002" stop-opacity="0.01"/>
<stop offset="1" stop-opacity="0"/>
</radialGradient>
<radialGradient id="paint11_radial_2137_1644" cx="0" cy="0" r="1" gradientUnits="userSpaceOnUse" gradientTransform="translate(134.933 152.647) rotate(-0.288108) scale(47.6075 52.7541)">
<stop offset="0.11" stop-color="white"/>
<stop offset="0.12" stop-color="#A700FF"/>
<stop offset="0.13" stop-color="#A200F8" stop-opacity="0.9604"/>
<stop offset="0.2" stop-color="#8100C5" stop-opacity="0.5929"/>
<stop offset="0.27" stop-color="#620096" stop-opacity="0.3481"/>
<stop offset="0.35" stop-color="#47006D" stop-opacity="0.1849"/>
<stop offset="0.43" stop-color="#31004B" stop-opacity="0.09"/>
<stop offset="0.51" stop-color="#1F0030" stop-opacity="0.0361"/>
<stop offset="0.6" stop-color="#11001A" stop-opacity="0.01"/>
<stop offset="0.71" stop-color="#07000B" stop-opacity="0.01"/>
<stop offset="0.82" stop-color="#010002" stop-opacity="0.01"/>
<stop offset="1" stop-opacity="0"/>
</radialGradient>
<radialGradient id="paint12_radial_2137_1644" cx="0" cy="0" r="1" gradientUnits="userSpaceOnUse" gradientTransform="translate(106.056 213.351) rotate(-0.288108) scale(47.6075 52.7541)">
<stop offset="0.11" stop-color="white"/>
<stop offset="0.12" stop-color="#A700FF"/>
<stop offset="0.13" stop-color="#A200F8" stop-opacity="0.9604"/>
<stop offset="0.2" stop-color="#8100C5" stop-opacity="0.5929"/>
<stop offset="0.27" stop-color="#620096" stop-opacity="0.3481"/>
<stop offset="0.35" stop-color="#47006D" stop-opacity="0.1849"/>
<stop offset="0.43" stop-color="#31004B" stop-opacity="0.09"/>
<stop offset="0.51" stop-color="#1F0030" stop-opacity="0.0361"/>
<stop offset="0.6" stop-color="#11001A" stop-opacity="0.01"/>
<stop offset="0.71" stop-color="#07000B" stop-opacity="0.01"/>
<stop offset="0.82" stop-color="#010002" stop-opacity="0.01"/>
<stop offset="1" stop-opacity="0"/>
</radialGradient>
</defs>
</svg>
