<svg width="83" height="96" viewBox="0 0 83 96" fill="none" xmlns="http://www.w3.org/2000/svg">
<g clip-path="url(#clip0_2137_1700)">
<path d="M81.9279 72C82.585 70.8343 83 69.5314 83 68.3657V27.6343C83 26.4686 82.585 25.1657 81.9279 24L41.5 48L81.9279 72Z" fill="#7F3A86"/>
<path d="M45.0966 95.1086L79.4033 74.7429C80.4062 74.16 81.3054 73.1314 81.9279 72L41.4999 48L1.07202 72C1.69452 73.1657 2.59369 74.16 3.5966 74.7429L37.9033 95.1086C39.8745 96.2743 43.1254 96.2743 45.0966 95.1086Z" fill="#662579"/>
<path d="M81.9279 23.9999C81.3054 22.8342 80.4062 21.8399 79.4033 21.2571L45.0967 0.891375C43.1254 -0.274339 39.8746 -0.274339 37.9033 0.891375L3.59667 21.2571C1.62542 22.4228 0 25.3028 0 27.6685V68.3999C0 69.5657 0.415 70.8685 1.07208 72.0342L41.5 48.0342L81.9279 24.0342V23.9999Z" fill="#9A5196"/>
<path d="M41.6383 75.4287C26.3178 75.4287 13.8333 63.1201 13.8333 48.0001C13.8333 32.8801 26.3178 20.5715 41.6383 20.5715C51.3562 20.5715 60.417 25.6458 65.4316 33.8058L53.5349 40.8687C51.0103 36.7887 46.4799 34.2515 41.6383 34.2515C33.9608 34.2515 27.7358 40.3887 27.7358 47.9658C27.7358 55.543 33.9608 61.6801 41.6383 61.6801C46.4799 61.6801 50.9758 59.1772 53.5003 55.0972L65.4316 62.1258C60.417 70.3201 51.3562 75.3601 41.6383 75.3601V75.4287Z" fill="white"/>
<path fill-rule="evenodd" clip-rule="evenodd" d="M72.6251 37.7144V41.1429H65.7084V37.7144H62.2501V41.1429H58.7917V44.5715H62.2501V51.3944H58.7917V54.8572H62.2501V58.2858H65.7084V54.8572H72.6251V58.2858H76.0834V54.8572H79.5417V51.4286H76.0834V44.5715H79.5417V41.1429H76.0834V37.7144H72.6251ZM72.6251 51.4286V44.5715H65.7084V51.3944H72.6251V51.4286Z" fill="white"/>
</g>
<defs>
<clipPath id="clip0_2137_1700">
<rect width="83" height="96" fill="white"/>
</clipPath>
</defs>
</svg>
