<svg width="88" height="88" viewBox="0 0 88 88" fill="none" xmlns="http://www.w3.org/2000/svg">
<path d="M44.6094 3.94727C67.3093 3.94727 85.7143 22.3543 85.7143 45.0655C85.7143 67.7768 67.3133 86.1838 44.6094 86.1838C21.9055 86.1838 3.50854 67.7728 3.50854 45.0655" stroke="#5EF5FF" stroke-width="3" stroke-miterlimit="10"/>
<path d="M47.7308 0.46875H41.492C41.2936 0.46875 41.1328 0.629639 41.1328 0.828106V7.06891C41.1328 7.26738 41.2936 7.42827 41.492 7.42827H47.7308C47.9292 7.42827 48.0901 7.26738 48.0901 7.06891V0.828106C48.0901 0.629639 47.9292 0.46875 47.7308 0.46875Z" fill="#5EF5FF"/>
<path d="M6.59801 41.6147H0.359238C0.160837 41.6147 0 41.7756 0 41.9741V48.2149C0 48.4134 0.160837 48.5743 0.359238 48.5743H6.59801C6.79641 48.5743 6.95725 48.4134 6.95725 48.2149V41.9741C6.95725 41.7756 6.79641 41.6147 6.59801 41.6147Z" fill="#5EF5FF"/>
<path d="M35.9586 36.5441H54.1911L53.2102 43.3568H35.9586V36.5441ZM39.1628 34.0473C39.1628 27.1336 41.6893 24.084 48.6565 24.084H54.1851V31.1879H48.8527C48.288 31.1879 47.8659 31.4019 47.5746 31.83C47.2833 32.258 47.1406 32.8108 47.1406 33.4885V66.4163H39.1628V34.0473Z" fill="url(#paint0_linear_2137_1510)"/>
<defs>
<linearGradient id="paint0_linear_2137_1510" x1="37.4237" y1="39.0352" x2="60.2001" y2="47.5214" gradientUnits="userSpaceOnUse">
<stop stop-color="#5EF5FF"/>
<stop offset="1" stop-color="white"/>
</linearGradient>
</defs>
</svg>
