<svg width="30" height="44" viewBox="0 0 30 44" fill="none" xmlns="http://www.w3.org/2000/svg">
<g clip-path="url(#clip0_2037_340)">
<path d="M26.09 19.025C25.3029 19.025 24.587 19.3342 24.0543 19.836C23.9235 18.4495 22.7535 17.3603 21.3338 17.3603C20.5823 17.3603 19.8998 17.6647 19.4051 18.1594C19.0103 16.9275 17.8546 16.031 16.4943 16.031C15.6786 16.031 14.9366 16.3544 14.3897 16.8776V10.0238C14.3897 8.2997 12.9866 6.89661 11.2624 6.89661C9.53829 6.89661 8.1352 8.2997 8.1352 10.0238V27.4555C7.37182 26.2521 6.14234 24.5993 4.49668 23.27C3.49311 22.459 2.07813 22.4519 1.06029 23.2509C0.470517 23.7147 0.09953 24.3806 0.0186739 25.1249C-0.0621822 25.8645 0.151849 26.5898 0.625095 27.1653C1.61439 28.371 3.10785 30.566 4.61083 34.1998C4.78918 34.6041 8.99132 44.0024 15.7262 44.0024C15.8118 44.0024 15.8998 44.0024 15.9854 43.9977H17.0912C23.6929 43.9977 29.065 38.6255 29.065 32.0238V22.0001C29.065 20.3615 27.7309 19.0274 26.0924 19.0274L26.09 19.025ZM28.1114 32.0215C28.1114 38.0999 23.1673 43.0441 17.0888 43.0441H15.9664C9.71427 43.2628 5.52165 33.9097 5.4836 33.8265C3.9402 30.0952 2.38966 27.8169 1.35993 26.5613C1.05316 26.1855 0.910469 25.7123 0.965166 25.2272C1.01748 24.7373 1.26243 24.3021 1.64769 23.9977C2.31594 23.4721 3.24341 23.4769 3.89977 24.0072C6.25649 25.9097 7.70952 28.5304 8.09953 29.2866C8.2113 29.5007 8.45149 29.6124 8.68692 29.5553C8.92236 29.4983 9.08645 29.289 9.08645 29.0464V10.0238C9.08645 8.82526 10.0615 7.84785 11.2624 7.84785C12.4634 7.84785 13.4384 8.82289 13.4384 10.0238V25.6838C13.4384 25.9454 13.6524 26.1594 13.914 26.1594C14.1756 26.1594 14.3897 25.9454 14.3897 25.6838V19.0869C14.3897 17.9263 15.3338 16.9822 16.4943 16.9822C17.6548 16.9822 18.5989 17.9263 18.5989 19.0869V25.4031C18.5989 25.6647 18.813 25.8788 19.0746 25.8788C19.3362 25.8788 19.5502 25.6647 19.5502 25.4031V20.0952C19.5502 19.1106 20.3492 18.3116 21.3338 18.3116C22.3183 18.3116 23.1174 19.1106 23.1174 20.0952V25.4031C23.1174 25.6647 23.3314 25.8788 23.593 25.8788C23.8546 25.8788 24.0686 25.6647 24.0686 25.4031V21.9977C24.0686 20.8823 24.9747 19.9763 26.09 19.9763C27.2054 19.9763 28.1114 20.8823 28.1114 21.9977V32.0215Z" fill="#FEFC46"/>
<path d="M5.30962 17.3151C5.39286 17.3722 5.48798 17.4007 5.58073 17.4007C5.73055 17.4007 5.878 17.3294 5.97074 17.1986C6.12056 16.9822 6.06824 16.6873 5.85421 16.5351C3.55933 14.9322 2.18953 12.3068 2.18953 9.51011C2.18953 4.79192 6.03019 0.951249 10.7508 0.951249C15.4713 0.951249 19.312 4.79191 19.312 9.51249C19.312 10.7515 19.0528 11.9477 18.5415 13.0654C18.4321 13.3032 18.5367 13.5862 18.7769 13.6956C19.0147 13.805 19.2977 13.7004 19.4071 13.4602C19.9755 12.2164 20.2632 10.8894 20.2632 9.51249C20.2632 4.26635 15.9945 0 10.7508 0C5.50701 0 1.23828 4.26635 1.23828 9.51249C1.23828 12.6183 2.76028 15.5363 5.30962 17.3151Z" fill="#FEFC46"/>
</g>
<defs>
<clipPath id="clip0_2037_340">
<rect width="29.063" height="44" fill="white"/>
</clipPath>
</defs>
</svg>
