<svg width="202" height="202" viewBox="0 0 202 202" fill="none" xmlns="http://www.w3.org/2000/svg">
<path d="M97.9114 8.11475C44.945 8.11475 2.00003 51.0644 2.00003 104.057C2.00003 157.05 44.9357 200 97.9114 200C150.887 200 193.813 157.041 193.813 104.057" stroke="#5EF5FF" stroke-width="4" stroke-miterlimit="10"/>
<path d="M90.6281 0H105.185C105.648 0 106.023 0.375408 106.023 0.838496V15.4004C106.023 15.8635 105.648 16.2389 105.185 16.2389H90.6281C90.1651 16.2389 89.7899 15.8635 89.7899 15.4004V0.838496C89.7899 0.375408 90.1651 0 90.6281 0Z" fill="#5EF5FF"/>
<path d="M186.605 96.0078H201.162C201.625 96.0078 202 96.3832 202 96.8463V111.408C202 111.871 201.625 112.247 201.162 112.247H186.605C186.142 112.247 185.766 111.871 185.766 111.408V96.8463C185.766 96.3832 186.142 96.0078 186.605 96.0078Z" fill="#5EF5FF"/>
</svg>
