<svg width="234" height="233" viewBox="0 0 234 233" fill="none" xmlns="http://www.w3.org/2000/svg">
<path d="M121.053 9.37262C182.193 9.37262 231.765 58.9795 231.765 120.186C231.765 181.393 182.204 231 121.053 231C59.9021 231 10.3513 181.382 10.3513 120.186" stroke="#5EF5FF" stroke-width="4" stroke-miterlimit="10"/>
<path d="M129.46 0H112.657C112.122 0 111.689 0.433596 111.689 0.968463V17.7874C111.689 18.3223 112.122 18.7559 112.657 18.7559H129.46C129.995 18.7559 130.428 18.3223 130.428 17.7874V0.968463C130.428 0.433596 129.995 0 129.46 0Z" fill="#5EF5FF"/>
<path d="M18.6723 110.889H1.8687C1.33432 110.889 0.901123 111.323 0.901123 111.857V128.676C0.901123 129.211 1.33432 129.645 1.8687 129.645H18.6723C19.2067 129.645 19.6399 129.211 19.6399 128.676V111.857C19.6399 111.323 19.2067 110.889 18.6723 110.889Z" fill="#5EF5FF"/>
</svg>
