<svg width="143" height="57" viewBox="0 0 143 57" fill="none" xmlns="http://www.w3.org/2000/svg">
<g clip-path="url(#clip0_2137_1817)">
<path d="M48.3664 41.5307C47.7625 43.1168 45.9837 43.9136 44.3953 43.31C42.8057 42.7075 42.0072 40.9336 42.611 39.3475C43.2148 37.7615 44.9937 36.9646 46.5821 37.5682C48.1716 38.1707 48.9702 39.9446 48.3664 41.5307Z" fill="#F4F4F4"/>
<path d="M42.6491 15.5086C42.0453 17.0936 42.8438 18.8686 44.4323 19.4711C46.0218 20.0736 47.7996 19.2768 48.4034 17.6907C49.0072 16.1046 48.2086 14.3307 46.6202 13.7282C45.0307 13.1257 43.2529 13.9226 42.6491 15.5086Z" fill="#F4F4F4"/>
<path d="M34.8495 14.4458C36.3998 13.751 37.0929 11.9337 36.3966 10.3856C35.7003 8.83754 33.8779 8.14709 32.3276 8.84188C30.7761 9.53667 30.0842 11.3551 30.7805 12.9021C31.4768 14.4501 33.2991 15.1406 34.8495 14.4458Z" fill="#F4F4F4"/>
<path d="M20.5415 19.433C22.1299 20.0356 23.9088 19.2387 24.5126 17.6537C25.1164 16.0677 24.3179 14.2938 22.7283 13.6913C21.1388 13.0887 19.3621 13.8856 18.7572 15.4706C18.1534 17.0566 18.952 18.8305 20.5415 19.433Z" fill="#F4F4F4"/>
<path d="M15.4074 25.6721C13.8559 26.3669 13.164 28.1853 13.8603 29.7323C14.5566 31.2793 16.3789 31.9708 17.9293 31.276C19.4808 30.5812 20.1727 28.7628 19.4764 27.2158C18.7801 25.6677 16.9578 24.9773 15.4074 25.6721Z" fill="#F4F4F4"/>
<path d="M32.2742 42.5555C30.7238 43.2503 30.0308 45.0687 30.7271 46.6157C31.4234 48.1638 33.2457 48.8542 34.7961 48.1594C36.3464 47.4646 37.0395 45.6463 36.3432 44.0993C35.6469 42.5523 33.8245 41.8607 32.2742 42.5555Z" fill="#F4F4F4"/>
<path d="M24.4744 41.4927C25.0782 39.9066 24.2797 38.1328 22.6912 37.5302C21.1017 36.9277 19.3239 37.7246 18.7201 39.3096C18.1163 40.8956 18.9149 42.6695 20.5044 43.272C22.0939 43.8746 23.8706 43.0777 24.4755 41.4927H24.4744Z" fill="#F4F4F4"/>
<path d="M45.5452 46.5484C45.0414 46.0805 44.4496 45.7679 43.8283 45.6018C39.8964 44.5476 40.077 42.4307 40.5068 40.8338C40.6536 40.2649 40.5013 39.6287 40.0368 39.1956C39.3676 38.5724 38.3188 38.6093 37.6943 39.2759C37.0698 39.9446 37.1068 40.9901 37.7759 41.6132C37.8771 41.7077 37.9892 41.7815 38.1067 41.8466C39.5482 42.6532 41.1976 43.9972 39.2164 47.5483C38.3265 49.1441 38.5984 51.2013 40.003 52.503C41.6513 54.0304 44.2287 53.9349 45.7584 52.2902C47.2892 50.6455 47.1934 48.0737 45.5452 46.5473V46.5484Z" fill="#F4F4F4"/>
<path d="M38.9911 9.38904C41.0245 12.9086 39.3969 14.2775 37.9608 15.1037C37.4538 15.4022 37.1111 15.9592 37.1328 16.5931C37.1644 17.5061 37.9314 18.2205 38.8464 18.189C39.7614 18.1575 40.4772 17.3922 40.4457 16.4792C40.4413 16.3402 40.4141 16.2088 40.3772 16.0807C39.9289 14.4925 39.7157 12.3799 43.6335 11.2671C45.3938 10.7667 46.6591 9.11872 46.5884 7.20804C46.5057 4.96517 44.6159 3.21408 42.3681 3.29767C40.1204 3.38018 38.3655 5.26589 38.4493 7.50876C38.4743 8.19486 38.6712 8.83429 38.9933 9.39012L38.9911 9.38904Z" fill="#F4F4F4"/>
<path d="M21.5783 10.4529C22.0821 10.9197 22.6739 11.2334 23.2952 11.3995C27.2271 12.4537 27.0465 14.5706 26.6167 16.1675C26.4699 16.7364 26.6222 17.3726 27.0867 17.8057C27.7558 18.4289 28.8046 18.392 29.4291 17.7243C30.0536 17.0567 30.0167 16.0101 29.3486 15.387C29.2464 15.2925 29.1343 15.2176 29.0179 15.1536C27.5763 14.347 25.927 13.003 27.9082 9.45196C28.7981 7.85611 28.5261 5.79888 27.1216 4.49723C25.4733 2.96978 22.897 3.06531 21.3662 4.71001C19.8354 6.35471 19.9311 8.92652 21.5794 10.4529H21.5783Z" fill="#F4F4F4"/>
<path d="M12.5242 23.6257C13.2118 23.6008 13.8526 23.4054 14.4097 23.084C17.9369 21.055 19.3077 22.6791 20.1368 24.1121C20.436 24.618 20.9941 24.96 21.6295 24.9382C22.5445 24.9068 23.2603 24.1414 23.2288 23.2284C23.1972 22.3154 22.4302 21.6011 21.5152 21.6326C21.376 21.638 21.2443 21.664 21.1159 21.7009C19.5242 22.1482 17.406 22.361 16.2919 18.4528C15.7903 16.6963 14.1388 15.4337 12.2239 15.5043C9.97618 15.5868 8.22237 17.4736 8.30505 19.7154C8.38774 21.9582 10.2775 23.7093 12.5253 23.6257H12.5242Z" fill="#F4F4F4"/>
<path d="M28.1323 47.6123C26.0988 44.0928 27.7264 42.7238 29.1626 41.8976C29.6696 41.5991 30.0134 41.0422 29.9905 40.4082C29.959 39.4952 29.1919 38.7809 28.277 38.8123C27.362 38.8438 26.6461 39.6092 26.6776 40.5222C26.682 40.6611 26.7092 40.7925 26.7462 40.9206C27.1944 42.5088 27.4077 44.6225 23.491 45.7353C21.7306 46.2357 20.4653 47.8826 20.536 49.7944C20.6187 52.0373 22.5085 53.7883 24.7563 53.7048C27.004 53.6222 28.7589 51.7365 28.6752 49.4937C28.6501 48.8076 28.4543 48.1681 28.1312 47.6123H28.1323Z" fill="#F4F4F4"/>
<path d="M15.4747 40.4581C15.9425 39.9543 16.2569 39.3649 16.4234 38.745C17.4798 34.8216 19.6014 35.0018 21.2018 35.4306C21.7719 35.5772 22.4094 35.4252 22.8435 34.9616C23.468 34.294 23.431 33.2474 22.7619 32.6243C22.0928 32.0012 21.044 32.037 20.4195 32.7046C20.3249 32.8056 20.2498 32.9185 20.1856 33.0347C19.3773 34.4731 18.0303 36.1189 14.4716 34.142C12.8723 33.254 10.8105 33.5254 9.50606 34.9269C7.97529 36.5716 8.07103 39.1434 9.71931 40.6698C11.3676 42.1972 13.945 42.1017 15.4747 40.457V40.4581Z" fill="#F4F4F4"/>
<path d="M52.9249 44.9352C51.7488 44.489 50.4215 45.0839 49.9732 46.2575C49.5261 47.431 50.1234 48.7565 51.2995 49.2027C52.4756 49.6489 53.804 49.054 54.2511 47.8794C54.6983 46.7047 54.1021 45.3814 52.9249 44.9352Z" fill="#F4F4F4"/>
<path d="M51.3571 12.1247C52.5332 12.5709 53.8616 11.976 54.3088 10.8013C54.7559 9.62779 54.1597 8.30226 52.9836 7.85608C51.8064 7.40989 50.4791 8.00481 50.032 9.17944C49.5848 10.353 50.181 11.6785 51.3571 12.1247Z" fill="#F4F4F4"/>
<path d="M34.5404 4.36481C35.6882 3.85023 36.2061 2.49213 35.6893 1.34681C35.1736 0.201493 33.8126 -0.315258 32.6647 0.199322C31.5169 0.713901 30.9991 2.07091 31.5158 3.21623C32.0315 4.36155 33.3915 4.8783 34.5404 4.36373V4.36481Z" fill="url(#paint0_linear_2137_1817)"/>
<path d="M14.1985 12.0661C15.3746 12.5123 16.703 11.9174 17.1502 10.7439C17.5973 9.57031 17 8.24478 15.8239 7.7986C14.6478 7.35241 13.3194 7.94732 12.8723 9.12087C12.4251 10.2955 13.0213 11.6189 14.1985 12.065V12.0661Z" fill="#F4F4F4"/>
<path d="M8.22342 30.5422C9.37123 30.0276 9.88911 28.6695 9.37341 27.5242C8.85771 26.3789 7.49774 25.8621 6.34884 26.3767C5.20103 26.8913 4.68424 28.2494 5.19994 29.3947C5.71564 30.54 7.07561 31.0557 8.22342 30.5411V30.5422Z" fill="url(#paint1_linear_2137_1817)"/>
<path d="M32.5832 52.6365C31.4354 53.1511 30.9186 54.5092 31.4332 55.6545C31.9489 56.8009 33.3099 57.3165 34.4577 56.802C35.6056 56.2874 36.1223 54.9304 35.6066 53.785C35.0909 52.6397 33.7299 52.123 32.5821 52.6376L32.5832 52.6365Z" fill="url(#paint2_linear_2137_1817)"/>
<path d="M15.7654 44.8765C14.5893 44.4303 13.2608 45.0263 12.8137 46.1988C12.3665 47.3724 12.9627 48.6979 14.1388 49.1441C15.316 49.5903 16.6434 48.9953 17.0894 47.8207C17.5366 46.6472 16.9404 45.3216 15.7643 44.8754L15.7654 44.8765Z" fill="#F4F4F4"/>
<path d="M37.3403 23.5833C37.3403 23.3847 37.5014 23.224 37.7005 23.224H38.1454V32.6764C38.1454 32.8751 37.9844 33.0357 37.7853 33.0357H37.3403V23.5833Z" fill="#F4F4F4"/>
<path d="M37.7854 33.2269H37.1489V23.5834C37.1489 23.2805 37.3959 23.0341 37.6994 23.0341H38.3359V32.6775C38.3359 32.9804 38.0889 33.2269 37.7854 33.2269ZM37.5308 32.8458H37.7854C37.879 32.8458 37.954 32.7698 37.954 32.6775V23.4151H37.6994C37.6059 23.4151 37.5308 23.4911 37.5308 23.5834V32.8458Z" fill="#F4F4F4"/>
<path d="M47.5587 29.3588C47.5587 29.5575 47.3977 29.7181 47.1986 29.7181H46.7351V23.2251H47.2106C47.3248 23.2251 47.4314 23.2783 47.5 23.3695L53.7917 31.8242V23.592C53.7917 23.3934 53.9527 23.2327 54.1518 23.2327H54.6153V33.0336H53.8472C53.733 33.0336 53.6263 32.9793 53.5578 32.8881L47.5587 24.8253V29.3566V29.3588Z" fill="#F4F4F4"/>
<path d="M54.8057 33.2269H53.8472C53.6731 33.2269 53.5077 33.1444 53.4054 33.0043L47.7502 25.4039V29.3588C47.7502 29.6617 47.5032 29.9081 47.1996 29.9081H46.5447V23.0341H47.2116C47.3846 23.0341 47.55 23.1166 47.6533 23.2555L53.6002 31.2478V23.5921C53.6002 23.2892 53.8472 23.0427 54.1507 23.0427H54.8057V33.2247V33.2269ZM47.3672 24.2521L53.7101 32.7774C53.7416 32.8198 53.7928 32.8458 53.8461 32.8458H54.4227V23.426H54.1496C54.0561 23.426 53.981 23.502 53.981 23.5942V32.4018L47.3454 23.4846C47.3139 23.4422 47.2627 23.4162 47.2094 23.4162H46.9244V29.5282H47.1975C47.291 29.5282 47.3661 29.4522 47.3661 29.3599V24.2532L47.3672 24.2521Z" fill="#F4F4F4"/>
<path d="M65.6571 29.3588C65.6571 29.5575 65.4961 29.7181 65.297 29.7181H64.8335V23.2251H65.3089C65.4232 23.2251 65.5298 23.2783 65.5983 23.3695L71.8901 31.8242V23.592C71.8901 23.3934 72.0511 23.2327 72.2502 23.2327H72.7137V33.0336H71.9456C71.8313 33.0336 71.7247 32.9793 71.6562 32.8881L65.6571 24.8253V29.3566V29.3588Z" fill="#F4F4F4"/>
<path d="M72.904 33.2269H71.9455C71.7726 33.2269 71.6072 33.1444 71.5038 33.0054L65.8485 25.405V29.3599C65.8485 29.6628 65.6016 29.9092 65.298 29.9092H64.6431V23.0352H65.31C65.4841 23.0352 65.6494 23.1177 65.7517 23.2566L71.6986 31.2489V23.5932C71.6986 23.2903 71.9455 23.0438 72.2491 23.0438H72.904V33.2258V33.2269ZM65.4656 24.2521L71.8085 32.7774C71.84 32.8198 71.8911 32.8458 71.9445 32.8458H72.5211V23.426H72.248C72.1544 23.426 72.0794 23.502 72.0794 23.5942V32.4018L65.4438 23.4846C65.4123 23.4423 65.3611 23.4162 65.3078 23.4162H65.0228V29.5282H65.2959C65.3894 29.5282 65.4645 29.4522 65.4645 29.3599V24.2532L65.4656 24.2521Z" fill="#F4F4F4"/>
<path d="M92.9882 28.0984C92.9882 30.9188 90.6882 33.2138 87.8616 33.2138C85.0351 33.2138 82.7351 30.9188 82.7351 28.0984C82.7351 25.278 85.0351 22.983 87.8616 22.983C90.6882 22.983 92.9882 25.278 92.9882 28.0984ZM92.2005 28.0984C92.2005 25.7112 90.2541 23.7679 87.8605 23.7679C85.467 23.7679 83.5206 25.7101 83.5206 28.0984C83.5206 30.4868 85.467 32.4289 87.8605 32.4289C90.2541 32.4289 92.2005 30.4868 92.2005 28.0984Z" fill="#F4F4F4"/>
<path d="M87.8605 33.4049C84.9284 33.4049 82.5425 31.0242 82.5425 28.0985C82.5425 25.1727 84.9284 22.792 87.8605 22.792C89.2792 22.792 90.6131 23.3446 91.6194 24.3477C92.6247 25.3508 93.1785 26.6828 93.1785 28.0974C93.1785 31.0231 90.7926 33.4038 87.8605 33.4038V33.4049ZM87.8605 23.1741C85.1384 23.1741 82.9244 25.3833 82.9244 28.0995C82.9244 30.8157 85.1384 33.025 87.8605 33.025C90.5826 33.025 92.7966 30.8157 92.7966 28.0995C92.7966 26.786 92.2831 25.5505 91.3496 24.6191C90.4161 23.6876 89.1769 23.1752 87.8616 23.1752L87.8605 23.1741ZM87.8605 32.62C85.3625 32.62 83.3302 30.5921 83.3302 28.0995C83.3302 25.607 85.3625 23.5791 87.8605 23.5791C90.3585 23.5791 92.3908 25.607 92.3908 28.0995C92.3908 30.5921 90.3585 32.62 87.8605 32.62ZM87.8605 23.959C85.5725 23.959 83.7121 25.8165 83.7121 28.0985C83.7121 30.3804 85.5736 32.2379 87.8605 32.2379C90.1474 32.2379 92.0089 30.3804 92.0089 28.0985C92.0089 25.8165 90.1474 23.959 87.8605 23.959Z" fill="#F4F4F4"/>
<path d="M104.675 33.0358H104.285C104.138 33.0358 104.005 32.9467 103.951 32.81L100.099 23.2251H100.708C100.855 23.2251 100.988 23.3141 101.042 23.4509L104.479 32.0033L107.901 23.4509C107.955 23.3141 108.088 23.2251 108.235 23.2251H108.843L105.008 32.81C104.954 32.9457 104.821 33.0358 104.674 33.0358H104.675Z" fill="#F4F4F4"/>
<path d="M104.675 33.2269H104.284C104.058 33.2269 103.858 33.0912 103.773 32.8816L99.8162 23.0352H100.708C100.935 23.0352 101.135 23.1709 101.22 23.3804L104.479 31.491L107.725 23.3804C107.808 23.1709 108.01 23.0352 108.236 23.0352H109.126L105.186 32.8806C105.103 33.0901 104.901 33.2258 104.675 33.2258V33.2269ZM100.382 23.4162L104.129 32.7394C104.155 32.8035 104.216 32.8447 104.286 32.8447H104.676C104.746 32.8447 104.807 32.8035 104.833 32.7383L108.563 23.4151H108.237C108.167 23.4151 108.107 23.4564 108.08 23.5215L104.481 32.5158L100.867 23.5215C100.841 23.4575 100.78 23.4162 100.71 23.4162H100.383H100.382Z" fill="#F4F4F4"/>
<path d="M115.889 33.0358H115.278L119.159 23.4498C119.215 23.3141 119.347 23.2251 119.493 23.2251H119.864C120.008 23.2251 120.138 23.3098 120.195 23.4422L122.911 29.7181H119.239V29.2871C119.239 29.0885 119.4 28.9278 119.599 28.9278H121.708L119.687 24.2586L116.224 32.811C116.17 32.9467 116.037 33.0358 115.89 33.0358H115.889Z" fill="#F4F4F4"/>
<path d="M115.889 33.2269H114.995L118.982 23.3793C119.067 23.1709 119.267 23.0352 119.492 23.0352H119.863C120.083 23.0352 120.282 23.1654 120.369 23.3674L123.2 29.9092H119.047V29.2883C119.047 28.9854 119.294 28.739 119.598 28.739H121.416L119.691 24.7548L116.399 32.8838C116.314 33.0923 116.114 33.228 115.889 33.228V33.2269ZM115.56 32.8458H115.888C115.957 32.8458 116.018 32.8046 116.045 32.7405L119.678 23.7658L121.995 29.12H119.596C119.502 29.12 119.427 29.196 119.427 29.2883V29.5282H122.618L120.018 23.5183C119.991 23.4564 119.931 23.4162 119.863 23.4162H119.492C119.423 23.4162 119.362 23.4575 119.336 23.5215L115.56 32.8447V32.8458Z" fill="#F4F4F4"/>
<path d="M129.046 23.5855C129.046 23.3869 129.207 23.2262 129.406 23.2262H135.073V23.6507C135.073 23.8493 134.912 24.01 134.713 24.01H129.046V23.5855ZM131.665 26.1411C131.665 25.9424 131.827 25.7817 132.026 25.7817H132.451V32.6764C132.451 32.8751 132.29 33.0358 132.091 33.0358H131.665V26.1411Z" fill="#F4F4F4"/>
<path d="M132.092 33.2269H131.475V26.1411C131.475 25.8382 131.722 25.5918 132.026 25.5918H132.643V32.6776C132.643 32.9805 132.396 33.2269 132.092 33.2269ZM131.857 32.8458H132.092C132.186 32.8458 132.261 32.7698 132.261 32.6776V25.9728H132.026C131.932 25.9728 131.857 26.0488 131.857 26.1411V32.8458ZM134.712 24.2011H128.854V23.5856C128.854 23.2827 129.101 23.0363 129.405 23.0363H135.262V23.6518C135.262 23.9547 135.015 24.2011 134.712 24.2011ZM129.236 23.8201H134.712C134.805 23.8201 134.881 23.7441 134.881 23.6518V23.4173H129.405C129.311 23.4173 129.236 23.4933 129.236 23.5856V23.8201Z" fill="#F4F4F4"/>
<path d="M141.685 23.5682C141.685 23.3695 141.846 23.2089 142.045 23.2089H147.809V23.6214C147.809 23.8201 147.648 23.9807 147.449 23.9807H141.685V23.5682ZM147.314 28.0105C147.314 28.2092 147.153 28.3699 146.954 28.3699H141.685V27.9573C141.685 27.7587 141.846 27.598 142.045 27.598H147.314V28.0105ZM141.685 32.6765V32.2639H147.449C147.648 32.2639 147.809 32.4246 147.809 32.6233V33.0358H142.045C141.846 33.0358 141.685 32.8751 141.685 32.6765Z" fill="#F4F4F4"/>
<path d="M147.999 33.2269H142.044C141.74 33.2269 141.493 32.9805 141.493 32.6776V32.074H147.449C147.752 32.074 147.999 32.3204 147.999 32.6233V33.2269ZM141.875 32.455V32.6776C141.875 32.771 141.951 32.8459 142.044 32.8459H147.617V32.6233C147.617 32.5299 147.541 32.455 147.449 32.455H141.875ZM146.954 28.5599H141.493V27.9563C141.493 27.6534 141.74 27.4069 142.044 27.4069H147.504V28.0105C147.504 28.3134 147.257 28.5599 146.954 28.5599ZM141.875 28.1788H146.954C147.047 28.1788 147.122 28.1028 147.122 28.0105V27.788H142.044C141.95 27.788 141.875 27.864 141.875 27.9563V28.1788ZM147.449 24.1707H141.493V23.5671C141.493 23.2643 141.74 23.0178 142.044 23.0178H147.999V23.6214C147.999 23.9243 147.752 24.1707 147.449 24.1707ZM141.875 23.7897H147.449C147.542 23.7897 147.617 23.7137 147.617 23.6214V23.3989H142.044C141.95 23.3989 141.875 23.4749 141.875 23.5671V23.7897Z" fill="#F4F4F4"/>
</g>
<defs>
<linearGradient id="paint0_linear_2137_1817" x1="31.3167" y1="2.28261" x2="35.8906" y2="2.28261" gradientUnits="userSpaceOnUse">
<stop stop-color="#FF1E00"/>
<stop offset="0.1" stop-color="#FF3101"/>
<stop offset="0.25" stop-color="#FF4802"/>
<stop offset="0.41" stop-color="#FF5804"/>
<stop offset="0.59" stop-color="#FF6104"/>
<stop offset="0.83" stop-color="#FF6505"/>
</linearGradient>
<linearGradient id="paint1_linear_2137_1817" x1="4.99975" y1="28.4589" x2="9.5736" y2="28.4589" gradientUnits="userSpaceOnUse">
<stop stop-color="#FF1E00"/>
<stop offset="0.1" stop-color="#FF3101"/>
<stop offset="0.25" stop-color="#FF4802"/>
<stop offset="0.41" stop-color="#FF5804"/>
<stop offset="0.59" stop-color="#FF6104"/>
<stop offset="0.83" stop-color="#FF6505"/>
</linearGradient>
<linearGradient id="paint2_linear_2137_1817" x1="31.2341" y1="54.7187" x2="35.8068" y2="54.7187" gradientUnits="userSpaceOnUse">
<stop stop-color="#FF1E00"/>
<stop offset="0.1" stop-color="#FF3101"/>
<stop offset="0.25" stop-color="#FF4802"/>
<stop offset="0.41" stop-color="#FF5804"/>
<stop offset="0.59" stop-color="#FF6104"/>
<stop offset="0.83" stop-color="#FF6505"/>
</linearGradient>
<clipPath id="clip0_2137_1817">
<rect width="143" height="57" fill="white"/>
</clipPath>
</defs>
</svg>
