<svg width="88" height="88" viewBox="0 0 88 88" fill="none" xmlns="http://www.w3.org/2000/svg">
<path d="M44.6095 3.47852C67.3094 3.47852 85.7144 21.8855 85.7144 44.5968C85.7144 67.3081 67.3134 85.715 44.6095 85.715C21.9057 85.715 3.50867 67.3041 3.50867 44.5968" stroke="#5EF5FF" stroke-width="3" stroke-miterlimit="10"/>
<path d="M47.7308 0H41.492C41.2936 0 41.1328 0.160889 41.1328 0.359356V6.60016C41.1328 6.79863 41.2936 6.95952 41.492 6.95952H47.7308C47.9292 6.95952 48.0901 6.79863 48.0901 6.60016V0.359356C48.0901 0.160889 47.9292 0 47.7308 0Z" fill="#5EF5FF"/>
<path d="M6.59801 41.146H0.359238C0.160837 41.146 0 41.3069 0 41.5053V47.7462C0 47.9446 0.160837 48.1055 0.359238 48.1055H6.59801C6.79641 48.1055 6.95725 47.9446 6.95725 47.7462V41.5053C6.95725 41.3069 6.79641 41.146 6.59801 41.146Z" fill="#5EF5FF"/>
<path d="M53.3098 65.9476H34.6202C28.1048 65.9476 22.7988 60.6474 22.7988 54.1262V35.4366C22.7988 28.9212 28.0991 23.6152 34.6202 23.6152H53.3098C59.8252 23.6152 65.1312 28.9155 65.1312 35.4366V54.1262C65.1312 60.6416 59.831 65.9476 53.3098 65.9476ZM34.6202 27.0523C29.9912 27.0523 26.2301 30.8191 26.2301 35.4424V54.132C26.2301 58.761 29.9969 62.5221 34.6202 62.5221H53.3098C57.9389 62.5221 61.6999 58.7553 61.6999 54.132V35.4424C61.6999 30.8134 57.9331 27.0523 53.3098 27.0523H34.6202Z" fill="url(#paint0_linear_2137_1500)"/>
<path d="M43.9674 55.927C37.8282 55.927 32.8289 50.9335 32.8289 44.7885C32.8289 38.6435 37.8224 33.6499 43.9674 33.6499C50.1124 33.6499 55.106 38.6435 55.106 44.7885C55.106 50.9335 50.1124 55.927 43.9674 55.927ZM43.9674 37.0754C39.7145 37.0754 36.2601 40.5356 36.2601 44.7827C36.2601 49.0298 39.7203 52.49 43.9674 52.49C48.2203 52.49 51.6747 49.0298 51.6747 44.7827C51.6747 40.5356 48.2145 37.0754 43.9674 37.0754Z" fill="url(#paint1_linear_2137_1500)"/>
<path d="M55.5671 34.9141C54.6123 34.9141 53.8312 34.1388 53.8312 33.1783C53.8312 32.2177 54.6065 31.4424 55.5671 31.4424C56.5276 31.4424 57.3029 32.2177 57.3029 33.1783C57.3029 34.1388 56.5276 34.9141 55.5671 34.9141Z" fill="url(#paint2_linear_2137_1500)"/>
<defs>
<linearGradient id="paint0_linear_2137_1500" x1="26.2005" y1="38.5664" x2="60.6463" y2="68.3648" gradientUnits="userSpaceOnUse">
<stop stop-color="#5EF5FF"/>
<stop offset="1" stop-color="white"/>
</linearGradient>
<linearGradient id="paint1_linear_2137_1500" x1="34.619" y1="41.5179" x2="52.7459" y2="57.1991" gradientUnits="userSpaceOnUse">
<stop stop-color="#5EF5FF"/>
<stop offset="1" stop-color="white"/>
</linearGradient>
<linearGradient id="paint2_linear_2137_1500" x1="54.1102" y1="32.6686" x2="56.9351" y2="35.1124" gradientUnits="userSpaceOnUse">
<stop stop-color="#5EF5FF"/>
<stop offset="1" stop-color="white"/>
</linearGradient>
</defs>
</svg>
