<svg width="115" height="109" viewBox="0 0 115 109" fill="none" xmlns="http://www.w3.org/2000/svg">
<g clip-path="url(#clip0_2136_1477)">
<path d="M87.3803 84.3802C86.8096 94.0822 90.8247 108.964 77.1871 108.989C54.9086 109.003 32.6301 109.001 10.3516 108.989C3.80436 108.986 0.0107685 105.177 0.00923015 98.5914C-0.00307672 69.1879 -0.00307672 39.7812 0.00923015 10.3745C0.0123069 3.81809 3.82436 0.0415909 10.4131 0.0354201C24.8599 0.021536 39.3051 0.0523897 53.7518 -6.16309e-05C55.3578 -0.00623237 56.5085 0.459659 57.6438 1.60587C67.0201 11.0841 76.4395 20.5207 85.8881 29.925C86.9588 30.991 87.5926 32.0832 87.3865 33.5981C87.4449 37.6723 87.3157 45.3888 87.3157 45.3888C90.414 49.5664 95.5705 53.5466 98.9472 57.6563C103.056 62.255 98.535 69.3298 92.5369 67.4878C91.3985 66.9201 90.8878 67.8395 90.4663 68.4906C89.9078 69.3529 90.9108 69.6615 91.3739 70.0672C98.2488 76.0991 105.139 82.1125 112.034 88.1212C114.655 90.4059 115.597 93.2136 114.623 96.5721C113.114 102.798 104.444 104.747 100.581 99.5695C96.3751 94.6962 92.1385 89.8506 87.3788 84.3771L87.3803 84.3802ZM83.6667 42.16C83.6667 39.8753 83.5467 38.0534 83.7006 36.2546C83.8498 34.5021 83.2206 34.0748 81.5315 34.1026C75.4396 34.2028 69.3446 34.172 63.2527 34.1334C57.1854 34.0948 53.3795 30.2335 53.3487 24.1059C53.3195 18.1712 53.2703 12.2334 53.3826 6.30027C53.418 4.38425 53.0872 3.65302 50.9089 3.67153C37.5052 3.79032 24.0984 3.72552 10.6931 3.73478C5.795 3.73787 3.69821 5.83438 3.69821 10.7201C3.6936 39.8722 3.69514 69.0259 3.69821 98.178C3.69821 103.218 5.77346 105.29 10.8224 105.291C33.3655 105.267 55.9178 105.348 78.4578 105.264C80.9777 105 83.436 103.115 83.5113 100.728C83.7206 94.0143 83.6882 87.2913 83.5975 80.5729C83.5806 79.2477 82.2714 77.7312 81.2346 77.8701C79.867 78.0537 79.867 79.5964 80.1808 81.0665C81.4222 86.0756 74.875 90.1206 70.8568 86.9472C67.8508 84.6548 68.0924 82.8715 63.5158 82.9255C46.7153 83.0103 29.9149 82.9717 13.1145 82.9702C11.5531 82.9378 8.93325 83.3435 8.9794 81.0912C8.98094 80.0854 9.66551 79.4791 10.5962 79.3156C28.1597 79.0934 45.4785 79.3125 63.0865 79.2369C60.0037 76.1793 57.3531 73.6956 54.8871 71.0375C53.7179 69.7787 52.5273 69.3082 50.8258 69.3174C37.4237 69.3282 24.0122 69.4686 10.6131 69.285C8.48405 69.1956 8.44405 65.993 10.4947 65.7307C23.6138 65.4268 36.7806 65.6458 49.9136 65.6458C52.2396 65.6458 52.3688 65.5086 52.9503 63.7345C53.7518 61.2924 55.947 59.6232 58.413 60.2017C59.4191 60.4377 60.4421 60.7956 61.179 60.5473C61.7343 60.3606 64.5803 57.4233 66.0187 55.7372C47.7691 55.6678 28.8196 55.8729 10.5762 55.66C9.56705 55.5567 9.00094 54.9134 8.97786 53.9245C8.94863 51.8188 11.3608 51.9684 12.8668 52.007C31.321 51.9931 50.792 52.0208 69.2461 51.9962L73.1705 48.3477C72.3967 45.2515 72.8844 42.2495 75.6226 40.6327C78.3732 39.0083 80.9515 39.7334 83.6652 42.1585L83.6667 42.16ZM89.0171 64.711C84.8266 60.5534 80.7392 56.5533 76.7287 52.4759C75.778 51.5087 75.258 51.7941 74.4612 52.6132C71.4321 55.7279 68.3631 58.8071 65.2572 61.8462C64.3803 62.7055 64.0526 63.2485 65.1418 64.296C68.8369 67.8503 72.4521 71.4895 76.0103 75.1812C76.9825 76.1886 77.5333 76.1423 78.4778 75.1781C81.8838 71.704 85.3743 68.3147 89.0171 64.7125V64.711ZM79.9654 30.3847C72.4136 22.8055 64.6987 15.0643 57.0577 7.39557C57.1362 34.0362 53.6949 30.2767 79.9654 30.3847ZM111.271 94.761C111.334 93.01 110.748 91.9949 109.83 91.1125C102.99 84.5453 95.5844 78.6306 88.4418 72.4152C86.6742 70.8755 86.1158 72.2563 85.3681 73.1155C84.7066 73.8745 83.8221 74.6536 84.942 75.9201C91.2185 83.0165 97.3996 90.1992 103.613 97.3511C105.978 100.48 111.174 98.1703 111.271 94.7625V94.761ZM58.6145 63.8209C56.0009 63.7869 55.3624 66.6764 57.17 68.1419C62.1389 73.1263 67.1155 78.103 72.0752 83.0967C73.2412 84.2707 74.5181 84.9911 75.8842 83.5857C77.221 82.2097 76.5456 80.9107 75.3765 79.7429C70.4599 74.8294 65.5541 69.9037 60.6483 64.9794C60.0237 64.3531 59.3883 63.7684 58.6161 63.8193L58.6145 63.8209ZM96.7443 61.7367C96.8243 60.9839 96.4243 60.3375 95.8505 59.7636C90.7555 54.6604 85.6635 49.5541 80.5669 44.4524C79.5085 43.3926 78.2886 43.0532 77.1164 44.1393C75.8395 45.3225 76.118 46.6214 77.2518 47.7831C78.6486 49.2132 80.067 50.6185 81.4792 52.0332C85.1005 55.6616 88.7387 59.273 92.3354 62.9261C93.7153 64.6616 96.732 64.2806 96.7428 61.7382L96.7443 61.7367Z" fill="#F4F4F6"/>
<path d="M45.0924 25.6672C44.5663 48.3663 11.71 48.2629 11.0654 25.7104C11.5285 3.44327 44.6555 3.25506 45.0924 25.6672ZM41.3788 25.9171C41.3465 8.23176 15.1036 8.26416 14.7836 25.7274C15.2282 43.1381 40.7542 43.5114 41.3788 25.9171Z" fill="#F4F4F6"/>
<path d="M43.6752 96.5907C32.6267 96.5259 21.569 96.7218 10.5251 96.512C9.63132 96.4272 9.10366 95.8332 8.98829 94.9894C8.85291 93.9866 9.39749 93.2508 10.3297 93.0286C31.6945 92.5488 53.1376 93.0116 74.5255 92.8558C76.0515 92.8327 78.4098 92.6291 78.3898 94.7796C78.3867 96.1294 77.4683 96.5598 76.3053 96.5753C65.4291 96.6169 54.5499 96.5753 43.6737 96.5891L43.6752 96.5907Z" fill="#F4F4F6"/>
<path d="M25.5689 32.5384C24.9089 32.5816 24.4628 32.3209 24.0875 31.9383C22.6875 30.5067 21.2861 29.0766 19.9047 27.6265C18.0402 25.8231 20.6692 23.2128 22.5076 25.024C23.569 25.8894 24.4582 27.9257 25.4766 27.6188C26.8765 27.1961 27.918 25.5377 29.0794 24.3745C30.6778 22.7716 32.2238 21.1148 33.833 19.5227C35.3775 17.6993 38.2265 20.3558 36.4897 22.0034C33.3084 25.3464 30.0809 28.6462 26.8719 31.963C26.4888 32.3594 26.0366 32.58 25.5704 32.5384H25.5689Z" fill="#F4F4F6"/>
</g>
<defs>
<clipPath id="clip0_2136_1477">
<rect width="115" height="109" fill="white"/>
</clipPath>
</defs>
</svg>
