<svg width="30" height="42" viewBox="0 0 30 42" fill="none" xmlns="http://www.w3.org/2000/svg">
<g clip-path="url(#clip0_2037_332)">
<path d="M25.5104 4.34173C22.6545 1.5082 18.8682 -0.0276681 14.8437 -0.000374834C10.9829 0.0318808 7.31817 1.5479 4.52681 4.27226C1.73546 6.99662 0.130123 10.6217 0.00606314 14.4799C-0.0435609 16.0059 0.137567 17.5169 0.539522 18.9709C0.683432 19.492 0.852153 19.9956 1.04817 20.4844L1.48734 21.4819L11.3849 39.7733C12.1094 41.1107 13.4467 41.9071 14.9677 41.9071C16.4887 41.9071 17.8261 41.1082 18.5506 39.7733L28.4481 21.4819L28.8674 20.5316C29.0684 20.0304 29.247 19.5044 29.3959 18.9684C29.7557 17.6708 29.9368 16.3235 29.9368 14.9662C29.9368 10.9467 28.3637 7.17278 25.5104 4.33925V4.34173ZM28.4407 18.7054C28.3017 19.2066 28.1355 19.6979 27.9543 20.1495L27.5648 21.0278L17.6772 39.3019C17.1288 40.3142 16.1165 40.9171 14.9677 40.9171C13.8189 40.9171 12.8041 40.3142 12.2582 39.3019L2.38802 21.065L1.96373 20.1048C1.79005 19.6656 1.63125 19.1942 1.49727 18.7104C1.1226 17.3532 0.953883 15.9414 0.998544 14.5147C1.23426 7.1182 7.44967 1.05166 14.8511 0.992106C18.6126 0.954888 22.1458 2.40143 24.8107 5.04639C27.4755 7.69135 28.9443 11.2147 28.9443 14.9687C28.9443 16.2366 28.7756 17.4946 28.4407 18.7054Z" fill="#FEFC46"/>
<path d="M14.9349 7.63708C10.7615 7.63708 7.36719 11.0314 7.36719 15.2048C7.36719 19.3781 10.7615 22.7724 14.9349 22.7724C19.1082 22.7724 22.5025 19.3781 22.5025 15.2048C22.5025 11.0314 19.1082 7.63708 14.9349 7.63708ZM14.9349 21.7799C11.3098 21.7799 8.35967 18.8298 8.35967 15.2048C8.35967 11.5797 11.3098 8.62957 14.9349 8.62957C18.5599 8.62957 21.51 11.5797 21.51 15.2048C21.51 18.8298 18.5599 21.7799 14.9349 21.7799Z" fill="#FEFC46"/>
</g>
<defs>
<clipPath id="clip0_2037_332">
<rect width="29.9407" height="41.91" fill="white"/>
</clipPath>
</defs>
</svg>
