<svg width="170" height="50" viewBox="0 0 170 50" fill="none" xmlns="http://www.w3.org/2000/svg">
<g clip-path="url(#clip0_2137_1794)">
<path d="M86.551 19.6785V34.3447H83.792L76.553 25.4398V34.3447H73.2339V19.6785H76.0135L83.2319 28.5833V19.6785H86.551Z" fill="white"/>
<path d="M106.118 31.6209V34.3447H94.876V19.6785H105.849V22.4023H98.2157V25.5867H104.957V28.2267H98.2157V31.6209H106.119H106.118Z" fill="white"/>
<path d="M113.55 27.8915V19.6785H116.91V27.7661C116.91 30.5529 118.113 31.7053 120.146 31.7053C122.179 31.7053 123.382 30.5529 123.382 27.7661V19.6785H126.701V27.8915C126.701 32.2074 124.254 34.5961 120.126 34.5961C115.999 34.5961 113.551 32.2074 113.551 27.8915H113.55Z" fill="white"/>
<path d="M144.144 34.3447L141.344 30.2593H138.253V34.3447H134.893V19.6785H141.178C145.057 19.6785 147.484 21.7111 147.484 25.0001C147.484 27.2003 146.385 28.8133 144.497 29.6305L147.754 34.3447H144.145H144.144ZM140.992 22.4439H138.254V27.5563H140.992C143.045 27.5563 144.082 26.5922 144.082 25.0001C144.082 23.4079 143.045 22.4439 140.992 22.4439Z" fill="white"/>
<path d="M154.11 27.0112C154.11 22.653 157.471 19.4264 162.055 19.4264C166.639 19.4264 169.999 22.6322 169.999 27.0112C169.999 31.3902 166.618 34.596 162.055 34.596C157.491 34.596 154.11 31.3694 154.11 27.0112ZM166.598 27.0112C166.598 24.2244 164.648 22.3178 162.055 22.3178C159.462 22.3178 157.512 24.2244 157.512 27.0112C157.512 29.798 159.462 31.7046 162.055 31.7046C164.648 31.7046 166.598 29.798 166.598 27.0112Z" fill="white"/>
<path d="M31.4006 0C39.806 0 47.4711 2.17879 53.0639 5.70278C59.0797 9.48321 62.8012 14.8546 62.8012 20.9102C62.8012 25.9294 60.2424 30.4892 55.9289 34.056V24.7543C56.5209 23.5155 56.8278 22.234 56.8278 20.9096C56.8278 17.0756 54.1848 13.498 49.9238 10.807C45.2298 7.85952 38.6851 6.02286 31.4006 6.02286C24.116 6.02286 17.5719 7.85952 12.888 10.807C8.61693 13.498 5.97334 17.0756 5.97334 20.9096C5.97334 24.7436 8.6163 28.3211 12.888 31.0121C13.0994 31.1508 13.3321 31.29 13.5542 31.4179V38.178C12.2012 37.5586 10.9218 36.8643 9.73724 36.1277C3.72149 32.3366 0 26.9652 0 20.9096C0 14.8539 3.72149 9.48321 9.73724 5.70278C15.3301 2.17879 22.9951 0 31.4006 0Z" fill="#FEFC30"/>
<path d="M16.5459 32.9238C19.9923 34.4082 24.0631 35.3905 28.4826 35.7005V41.7341C24.1903 41.4776 20.1514 40.6447 16.5459 39.3738V32.9238Z" fill="#FEFC30"/>
<path d="M16.5459 37.0356V11.4585L46.974 37.1314V18.1442H52.9473V50L22.5093 24.3271V37.0356H16.5459Z" fill="#FEFC30"/>
</g>
<defs>
<clipPath id="clip0_2137_1794">
<rect width="170" height="50" fill="white"/>
</clipPath>
</defs>
</svg>
