<svg width="127" height="38" viewBox="0 0 127 38" fill="none" xmlns="http://www.w3.org/2000/svg">
<g clip-path="url(#clip0_2137_1811)">
<path fill-rule="evenodd" clip-rule="evenodd" d="M18.814 19.0008L28.221 28.5011L18.814 38H0L9.40701 28.5011L18.814 19.0008L28.221 9.50037L37.6327 19.0008L28.221 28.5011L18.814 19.0008Z" fill="white"/>
<path fill-rule="evenodd" clip-rule="evenodd" d="M18.814 19.0008L28.221 9.50039L18.814 0H0L9.40701 9.50039L18.814 19.0008Z" fill="#2BC3FD"/>
<path fill-rule="evenodd" clip-rule="evenodd" d="M28.221 28.5011L18.814 19.0008L28.221 9.50037L37.6326 19.0008L28.221 28.5011Z" fill="#2D50CE"/>
<path fill-rule="evenodd" clip-rule="evenodd" d="M78.167 10.3731C75.9022 10.3731 74.4939 11.516 73.9404 13.8048H82.1973C81.8293 11.516 80.4937 10.3731 78.1686 10.3731M98.7264 10.626L94.9358 5.54876H87.1814L91.0354 10.626H98.7248H98.7264ZM87.1829 26.0827L102.523 5.54876H110.278L102.54 15.733L110.278 26.0827H102.775L98.7279 20.7572L94.6822 26.0827H87.1845H87.1829ZM88.5681 15.3677C88.5681 16.4715 88.5263 17.2912 88.4398 17.8267H73.976C74.6191 20.0265 76.148 21.1288 78.5489 21.1288C79.9727 21.1288 81.0069 20.6339 81.6485 19.6424H88.398C87.8956 21.7658 86.7392 23.4395 84.9413 24.6838C83.1434 25.9282 80.9822 26.5464 78.4592 26.5464C75.1664 26.5464 72.4811 25.5441 70.4126 23.5394C68.3751 21.5644 67.3532 18.9805 67.3532 15.7908C67.3532 12.6011 68.3457 10.0936 70.3307 8.08896C72.3744 6.08428 74.9963 5.08038 78.2134 5.08038C81.1677 5.08038 83.6427 6.04213 85.6292 7.95782C87.5926 9.85009 88.5665 12.3154 88.5665 15.3645L88.5681 15.3677ZM121.47 26.7197H127V20.4106H123.27C121.144 20.4106 120.082 19.3786 120.082 17.3208V11.4348H127.002V5.54876H120.082V2.05774H113.298V5.54876L108.79 11.4348H113.298V17.5316C113.298 20.3216 114.034 22.5558 115.517 24.2185C116.999 25.8813 118.984 26.7197 121.472 26.7197H121.47ZM56.9197 5.0835C59.4952 5.0835 61.573 5.94533 63.1668 7.66586C64.7607 9.36453 65.5553 11.6471 65.5553 14.5246V26.2529H58.764V15.6268C58.764 14.2107 58.4301 13.1444 57.7777 12.4075C57.1238 11.6768 56.207 11.3099 55.0337 11.3099C53.749 11.3099 52.5231 11.9812 51.342 13.338V26.2529H44.5105V5.7205H51.342V7.07726C53.0765 5.75017 54.9332 5.0835 56.9182 5.0835H56.9197Z" fill="white"/>
<path fill-rule="evenodd" clip-rule="evenodd" d="M127 32.6761V31.7611H123.789V35.8767H127V34.9571H124.805V34.2311H126.796V33.3177H124.805V32.6745H127V32.6761ZM116.344 32.6932H117.126C117.477 32.6932 117.721 32.8884 117.721 33.1772C117.721 33.4661 117.475 33.655 117.126 33.655H116.344V32.6932ZM118.89 35.8782L117.904 34.4622C118.435 34.2451 118.773 33.7721 118.773 33.1772C118.773 32.3404 118.119 31.7611 117.219 31.7611H115.328V35.8767H116.344V34.5855H116.84L117.734 35.8767H118.89V35.8782ZM110.324 32.6761V31.7611H107.118V35.8767H110.324V34.9571H108.129V34.2311H110.12V33.3177H108.129V32.6745H110.324V32.6761ZM100.957 31.7611V33.3177H99.2922V31.7611H98.2765V35.8767H99.2922V34.2311H100.957V35.8767H101.973V31.7611H100.957ZM87.6791 35.8782H88.6948V33.4426L90.4649 35.8782H91.4806V31.7627H90.4649V34.1921L88.6948 31.7627H87.6791V35.8782ZM80.1876 34.4747L80.6776 33.2131L81.1677 34.4747H80.1876ZM81.718 35.8782H82.862L81.245 31.7627H80.1072L78.4948 35.8782H79.6341L79.8737 35.2772H81.4846L81.7196 35.8782H81.718ZM71.9199 34.2857H72.7903V34.8041C72.5862 34.9399 72.345 35.0164 72.107 35.0164C71.4762 35.0164 70.9336 34.4684 70.9336 33.8142C70.9336 33.1601 71.4778 32.6167 72.107 32.6167C72.4579 32.6167 72.8134 32.7822 73.0361 33.0586L73.7781 32.3919C73.3576 31.9485 72.7377 31.6893 72.1085 31.6893C70.9058 31.6893 69.8963 32.6573 69.8963 33.8127C69.8963 34.968 70.9058 35.9469 72.1085 35.9469C72.7392 35.9469 73.3592 35.6815 73.7781 35.2334V33.5113H71.9199V34.2842V34.2857ZM62.8808 35.0164C62.2563 35.0164 61.7245 34.4684 61.7245 33.8142C61.7245 33.1601 62.2563 32.6167 62.8808 32.6167C63.5054 32.6167 64.0325 33.1647 64.0325 33.8142C64.0325 34.4637 63.5007 35.0164 62.8808 35.0164ZM62.8808 35.9485C64.0727 35.9485 65.0761 34.9696 65.0761 33.8142C65.0761 32.6589 64.0727 31.6909 62.8808 31.6909C61.6889 31.6909 60.6918 32.6589 60.6918 33.8142C60.6918 34.9696 61.6905 35.9485 62.8808 35.9485ZM53.9654 34.9587V31.7627H52.9559V35.8782H55.9334V34.9587H53.9654ZM46.3919 35.9485C47.3968 35.9485 48.0151 35.4302 48.0151 34.6042C48.0151 33.8314 47.4323 33.5722 46.5218 33.3724C45.9142 33.2366 45.7163 33.1538 45.7163 32.9071C45.7163 32.701 45.9018 32.548 46.2296 32.548C46.6083 32.548 47.018 32.6964 47.3968 32.9852L47.91 32.2545C47.4787 31.8892 46.9407 31.694 46.2574 31.694C45.3298 31.694 44.6976 32.2186 44.6976 33.0086C44.6976 33.7986 45.3407 34.0765 46.2157 34.2701C46.8124 34.4184 46.9979 34.4715 46.9979 34.7135C46.9979 34.9368 46.8 35.096 46.4259 35.096C45.925 35.096 45.4798 34.9009 45.0825 34.5715L44.5105 35.2615C45.0006 35.7096 45.6669 35.9516 46.3903 35.9516L46.3919 35.9485Z" fill="white"/>
</g>
<defs>
<clipPath id="clip0_2137_1811">
<rect width="127" height="38" fill="white"/>
</clipPath>
</defs>
</svg>
