<svg width="33" height="32" viewBox="0 0 33 32" fill="none" xmlns="http://www.w3.org/2000/svg">
<g clip-path="url(#clip0_2037_335)">
<path d="M28.1857 23.5105C28.1617 23.4905 28.1337 23.4725 28.1117 23.4605L22.914 20.4707L22.856 20.4407C22.834 20.4287 22.812 20.4167 22.788 20.4067C20.9402 19.5428 19.6742 21.2067 18.7443 22.4306C18.5663 22.6686 18.3423 22.9646 18.1743 23.1326C17.9624 23.3446 17.7864 23.4765 17.6424 23.5325C17.6044 23.5465 17.5604 23.5565 17.4904 23.5225C15.3465 22.4266 13.5666 21.1147 12.0487 19.5088C10.7968 18.1869 9.70687 16.663 8.62494 14.7151C8.50494 14.3051 9.08691 13.8391 9.80286 13.3212C10.0388 13.1512 10.2488 12.9972 10.4348 12.8392C11.1348 12.3292 11.5907 11.8113 11.8307 11.2533C12.1667 10.4674 12.0587 9.70341 11.5148 8.98545L8.20096 3.3818C8.02897 3.06982 7.71499 2.86783 7.36301 2.84183C5.44913 2.67184 3.83123 3.10782 2.55531 4.13575C1.28339 5.14969 0.449446 6.70759 0.137465 8.63747C-0.330505 11.5633 0.401449 14.8831 2.25533 18.2369C4.11922 21.6047 7.07503 24.9645 10.3708 27.4543C11.1488 28.0323 11.9227 28.5162 12.6707 28.9842L12.9387 29.1542C14.7825 30.2941 16.3165 31.0321 17.7684 31.482C18.9023 31.83 20.0022 32.002 21.1002 32.002C21.6161 32.002 22.1341 31.964 22.6521 31.888C23.958 31.694 24.9719 31.418 25.8399 31.0181C27.0278 30.4821 27.9297 29.6822 28.5217 28.6422C29.0397 27.7323 29.3356 26.7203 29.3356 25.8624C29.3276 24.8365 28.9297 24.0245 28.1857 23.5125V23.5105ZM27.8277 28.2442C27.3138 29.1462 26.5558 29.8141 25.5079 30.2881C24.7079 30.6561 23.764 30.9121 22.5341 31.0941C21.0142 31.3181 19.5723 31.1981 18.0023 30.7161C16.6184 30.2881 15.1425 29.5742 13.3646 28.4762L13.0947 28.3042C12.3607 27.8463 11.6007 27.3703 10.8508 26.8143C7.645 24.3925 4.76718 21.1247 2.95529 17.8509C1.1894 14.6551 0.489443 11.5133 0.927416 8.76546C1.2074 7.03357 1.94135 5.64966 3.05328 4.75771C4.00322 3.99176 5.18515 3.60379 6.57506 3.60379C6.80905 3.60379 7.04903 3.61379 7.29502 3.63578C7.37901 3.64178 7.45701 3.69178 7.503 3.77578L10.8368 9.41142L10.8648 9.45142C11.2448 9.94339 11.3168 10.4134 11.0948 10.9353C10.9148 11.3533 10.5308 11.7793 9.95285 12.1972L9.92685 12.2172C9.76286 12.3572 9.56088 12.5052 9.33489 12.6692C8.55494 13.2352 7.48701 14.0111 7.89498 15.0411L8.11097 14.9591L7.91098 15.0691C9.03291 17.0929 10.1648 18.6768 11.4708 20.0568C13.0527 21.7307 14.9025 23.0966 17.1364 24.2365C17.4004 24.3645 17.6784 24.3785 17.9344 24.2765C18.1843 24.1805 18.4423 23.9985 18.7423 23.6965C18.9043 23.5345 19.0983 23.2986 19.3923 22.9046C20.4442 21.5207 21.2801 20.5827 22.4701 21.1407C22.4921 21.1527 22.5141 21.1647 22.5381 21.1767L27.7057 24.1485C27.7197 24.1585 27.7317 24.1685 27.7397 24.1725C28.2657 24.5345 28.5357 25.1044 28.5417 25.8664C28.5417 26.5863 28.2837 27.4543 27.8317 28.2462L27.8277 28.2442Z" fill="#FEFC46"/>
<path d="M23.1931 1.89394C19.1234 -0.127935 15.2376 -0.00194274 15.0757 0.00405688C14.8557 0.0120564 14.6837 0.198045 14.6917 0.418031C14.6997 0.638017 14.8857 0.812007 15.1056 0.802007C15.1436 0.802007 18.9754 0.682014 22.8652 2.62389C28.0508 5.21373 30.8847 10.0574 31.2906 17.025C31.3026 17.237 31.4786 17.401 31.6886 17.401C31.6966 17.401 31.7046 17.401 31.7126 17.401C31.9326 17.389 32.1006 17.199 32.0886 16.979C31.5606 7.90356 26.9589 3.76582 23.1931 1.89594V1.89394Z" fill="#FEFC46"/>
<path d="M15.7034 5.00169C15.7293 5.00169 18.4332 4.9177 21.171 6.28961C24.8128 8.1115 26.8027 11.5213 27.0886 16.425C27.1006 16.637 27.2766 16.801 27.4866 16.801C27.4946 16.801 27.5026 16.801 27.5106 16.801C27.7306 16.789 27.8986 16.599 27.8866 16.379C27.5086 9.87139 24.2048 6.90357 21.499 5.55966C18.5792 4.10975 15.7893 4.19774 15.6714 4.20374C15.4514 4.21174 15.2794 4.39773 15.2874 4.61772C15.2954 4.8377 15.4834 5.01369 15.7014 5.00169H15.7034Z" fill="#FEFC46"/>
<path d="M14.8889 8.61743C14.8969 8.83741 15.0789 9.0034 15.3029 9.0014C15.6009 8.9874 22.6245 8.83141 23.0884 16.8249C23.1004 17.0369 23.2764 17.2009 23.4864 17.2009C23.4944 17.2009 23.5024 17.2009 23.5104 17.2009C23.7304 17.1889 23.8984 16.9989 23.8864 16.7789C23.3764 7.99347 15.3529 8.20145 15.2729 8.20345C15.0529 8.21145 14.8809 8.39744 14.8889 8.61743Z" fill="#FEFC46"/>
</g>
<defs>
<clipPath id="clip0_2037_335">
<rect width="32.088" height="32" fill="white"/>
</clipPath>
</defs>
</svg>
