<svg width="212" height="33" viewBox="0 0 212 33" fill="none" xmlns="http://www.w3.org/2000/svg">
<g clip-path="url(#clip0_2137_1865)">
<path d="M85 0.026238C85.1349 0.0149932 85.2736 0 85.4086 0C90.585 0 95.7613 0 100.938 0H101.399C101.41 0.123694 101.421 0.209904 101.421 0.292367C101.418 5.84358 101.515 11.3948 101.376 16.9423C101.238 22.546 98.6663 26.9352 94.0559 30.095C91.4321 31.8942 88.4859 32.7713 85.2999 32.8238C85.2024 32.8238 85.1012 32.8125 85.0037 32.805V27.34C85.5398 27.31 86.0795 27.3213 86.6043 27.2426C91.2034 26.5566 94.843 23.0745 95.7463 18.4941C95.8775 17.8194 95.9075 17.1259 95.99 16.4138H85V0.026238Z" fill="#53D8F8"/>
<path d="M125.197 17.4633C125.099 18.1267 125.032 18.7939 124.904 19.4536C124.08 23.6929 121.917 27.1039 118.453 29.664C115.71 31.6918 112.61 32.7338 109.195 32.8238C109.094 32.8238 108.997 32.8238 108.895 32.8238C108.873 32.8238 108.85 32.805 108.805 32.7863V27.3887C112.554 27.2576 115.575 25.7208 117.764 22.6547C119.076 20.818 119.694 18.7377 119.728 16.4325H108.802V0.0224897C108.929 0.0149932 109.038 0 109.146 0C114.398 0 119.649 0 124.901 0C124.998 0 125.099 0.0149932 125.197 0.0224897C125.197 5.83609 125.197 11.6497 125.197 17.4633Z" fill="#53D8F8"/>
</g>
<circle cx="156" cy="16" r="5" fill="#53D8F8"/>
<circle cx="55" cy="16" r="5" fill="#53D8F8"/>
<circle cx="5" cy="16" r="5" fill="#53D8F8"/>
<circle cx="207" cy="16" r="5" fill="#53D8F8"/>
<defs>
<clipPath id="clip0_2137_1865">
<rect width="40.1966" height="32.8238" fill="white" transform="translate(85)"/>
</clipPath>
</defs>
</svg>
