<svg width="300" height="49" viewBox="0 0 300 49" fill="none" xmlns="http://www.w3.org/2000/svg">
<path d="M33.816 35.7055H30.0769V27.0164C30.0769 24.4723 31.9215 22.4106 34.1977 22.4106H59.7755C59.986 22.4106 60.1572 22.2192 60.1572 21.984V4.60575C60.1572 4.37047 59.986 4.17907 59.7755 4.17907H52.49C52.2188 4.17907 52.0012 3.93582 52.0012 3.63276V0.546309C52.0012 0.243247 52.2188 0 52.49 0H59.7755C62.0517 0 63.8963 2.06162 63.8963 4.60575V21.9879C63.8963 24.5321 62.0517 26.5937 59.7755 26.5937H34.1977C33.9872 26.5937 33.816 26.7851 33.816 27.0204V35.7095V35.7055Z" fill="url(#paint0_linear_2166_592)"/>
<path d="M11.4063 26.5897H4.12084C1.84456 26.5897 0 24.5281 0 21.984V4.60575C0 2.06162 1.84456 0 4.12084 0H41.0442C42.1431 0 43.1778 0.478519 43.9556 1.34783L53.3211 11.8154L50.6774 14.7703L41.3083 4.2987C41.2369 4.21894 41.1406 4.17508 41.0407 4.17508H4.12084C3.91033 4.17508 3.73908 4.36649 3.73908 4.60176V21.984C3.73908 22.2192 3.91033 22.4106 4.12084 22.4106H11.4063C11.6775 22.4106 11.8951 22.6539 11.8951 22.9569V26.0434C11.8951 26.3465 11.6775 26.5897 11.4063 26.5897Z" fill="url(#paint1_linear_2166_592)"/>
<path d="M39.7238 49.0001H24.1717C21.8954 49.0001 20.0508 46.9385 20.0508 44.3944V25.5407C20.0508 25.4291 20.0116 25.3174 19.9402 25.2376L10.5747 14.77L13.2185 11.8152L22.584 22.2828C23.3618 23.1521 23.7899 24.3085 23.7899 25.5367V44.3904C23.7899 44.6256 23.9612 44.817 24.1717 44.817H39.7238C39.9343 44.817 40.1056 44.6256 40.1056 44.3904V36.2476C40.1056 35.9445 40.3232 35.7013 40.5944 35.7013H43.3559C43.627 35.7013 43.8447 35.9445 43.8447 36.2476V44.3904C43.8447 46.9345 42.0001 48.9961 39.7238 48.9961V49.0001Z" fill="url(#paint2_linear_2166_592)"/>
<path d="M15.4523 8.96851H8.39872C8.11892 8.96851 7.89209 9.22202 7.89209 9.53475V17.4184C7.89209 17.7311 8.11892 17.9846 8.39872 17.9846H15.4523C15.7321 17.9846 15.9589 17.7311 15.9589 17.4184V9.53475C15.9589 9.22202 15.7321 8.96851 15.4523 8.96851Z" fill="url(#paint3_linear_2166_592)"/>
<path d="M55.5263 8.96851H48.4727C48.1929 8.96851 47.9661 9.22202 47.9661 9.53475V17.4184C47.9661 17.7311 48.1929 17.9846 48.4727 17.9846H55.5263C55.8061 17.9846 56.0329 17.7311 56.0329 17.4184V9.53475C56.0329 9.22202 55.8061 8.96851 55.5263 8.96851Z" fill="url(#paint4_linear_2166_592)"/>
<path d="M35.5002 31.3149H28.4466C28.1668 31.3149 27.9399 31.5685 27.9399 31.8812V39.7648C27.9399 40.0775 28.1668 40.331 28.4466 40.331H35.5002C35.78 40.331 36.0068 40.0775 36.0068 39.7648V31.8812C36.0068 31.5685 35.78 31.3149 35.5002 31.3149Z" fill="url(#paint5_linear_2166_592)"/>
<path d="M242.77 13.585H225.766C223.257 13.585 221.217 15.8659 221.217 18.6692V30.2653C221.217 33.0687 223.257 35.3496 225.766 35.3496H242.77C242.877 35.3496 242.966 35.2499 242.966 35.1303V31.7089C242.966 31.5892 242.877 31.4895 242.77 31.4895H226.533C225.509 31.4895 224.674 30.5564 224.674 29.412V19.5266C224.674 18.3821 225.509 17.449 226.533 17.449H242.77C242.877 17.449 242.966 17.3493 242.966 17.2297V13.8083C242.966 13.6886 242.877 13.5889 242.77 13.5889V13.585Z" fill="white"/>
<path d="M211.844 13.585H214.905C215.012 13.585 215.101 13.6847 215.101 13.8043V35.1263C215.101 35.2459 215.012 35.3456 214.905 35.3456H211.844C211.737 35.3456 211.647 35.2459 211.647 35.1263V13.8043C211.647 13.6847 211.737 13.585 211.844 13.585Z" fill="white"/>
<path d="M264.919 35.3456C267.427 35.3456 269.468 33.0647 269.468 30.2613V27.6175C269.468 24.8142 267.427 22.5333 264.922 22.5333H252.485C251.461 22.5333 250.626 21.6002 250.626 20.4557V19.5226C250.626 18.9683 250.819 18.4459 251.172 18.0551C251.525 17.6603 251.989 17.445 252.485 17.445H268.726C268.833 17.445 268.922 17.3493 268.922 17.2257V13.8043C268.922 13.6847 268.833 13.585 268.726 13.585H251.721C249.213 13.585 247.172 15.8659 247.172 18.6692V21.313C247.172 24.1164 249.213 26.3973 251.721 26.3973H264.159C265.183 26.3973 266.018 27.3304 266.018 28.4749V29.408C266.018 30.5524 265.183 31.4856 264.159 31.4856H247.918C247.811 31.4856 247.722 31.5813 247.722 31.7049V35.1263C247.722 35.2459 247.811 35.3456 247.918 35.3456H264.922H264.919Z" fill="white"/>
<path d="M205.529 17.2257V13.8043C205.529 13.6847 205.44 13.585 205.333 13.585H182.877C182.77 13.585 182.68 13.6847 182.68 13.8043V17.2257C182.68 17.3453 182.77 17.445 182.877 17.445H192.378V35.1263C192.378 35.2459 192.467 35.3456 192.574 35.3456H195.635C195.742 35.3456 195.831 35.2459 195.831 35.1263V17.445H205.333C205.44 17.445 205.529 17.3453 205.529 17.2257Z" fill="white"/>
<path d="M134.778 13.6521C132.27 13.6521 130.229 15.933 130.229 18.7364V30.3325C130.229 33.1358 132.27 35.4167 134.778 35.4167H151.782C151.89 35.4167 151.979 35.317 151.979 35.1974V31.776C151.979 31.6564 151.89 31.5567 151.782 31.5567H135.545C134.521 31.5567 133.686 30.6236 133.686 29.4791V19.5937C133.686 18.4493 134.521 17.5161 135.545 17.5161H151.782C151.89 17.5161 151.979 17.4164 151.979 17.2968V13.8754C151.979 13.7558 151.89 13.6561 151.782 13.6561H134.778V13.6521Z" fill="url(#paint6_linear_2166_592)"/>
<path d="M175.224 35.4128H178.285C178.392 35.4128 178.481 35.3131 178.481 35.1935V13.8675C178.481 13.7479 178.392 13.6482 178.285 13.6482H175.224C175.117 13.6482 175.027 13.7479 175.027 13.8675V22.6005H159.636V13.8675C159.636 13.7479 159.547 13.6482 159.44 13.6482H156.378C156.271 13.6482 156.182 13.7479 156.182 13.8675V35.1895C156.182 35.3092 156.271 35.4088 156.378 35.4088H159.44C159.547 35.4088 159.636 35.3092 159.636 35.1895V26.4566H175.027V35.1895C175.027 35.3092 175.117 35.4088 175.224 35.4088V35.4128Z" fill="url(#paint7_linear_2166_592)"/>
<path d="M100.627 17.2928V13.8714C100.627 13.7518 100.538 13.6521 100.431 13.6521H77.9787C77.8717 13.6521 77.7825 13.7518 77.7825 13.8714V17.2928C77.7825 17.4125 77.8717 17.5122 77.9787 17.5122H87.4798V35.1934C87.4798 35.3131 87.569 35.4127 87.6761 35.4127H90.7372C90.8443 35.4127 90.9335 35.3131 90.9335 35.1934V17.5122H100.435C100.542 17.5122 100.631 17.4125 100.631 17.2928H100.627Z" fill="url(#paint8_linear_2166_592)"/>
<path d="M125.477 35.4128C125.584 35.4128 125.673 35.3131 125.673 35.1935V31.7721C125.673 31.6525 125.584 31.5528 125.477 31.5528H109.793C108.762 31.5528 107.927 30.6197 107.927 29.4672V26.4605H123.379C123.486 26.4605 123.575 26.3608 123.575 26.2412V22.8198C123.575 22.7002 123.486 22.6005 123.379 22.6005H107.927V19.5938C107.927 18.4414 108.762 17.5082 109.793 17.5082H125.477C125.584 17.5082 125.673 17.4086 125.673 17.2889V13.8675C125.673 13.7479 125.584 13.6482 125.477 13.6482H108.997C106.5 13.6482 104.473 15.9132 104.473 18.7045V30.3565C104.473 33.1478 106.5 35.4128 108.997 35.4128H125.477Z" fill="url(#paint9_linear_2166_592)"/>
<path d="M273.213 33.0165C273.213 31.585 274.158 30.6399 275.311 30.6399C276.463 30.6399 277.412 31.585 277.412 33.0165C277.412 34.4481 276.463 35.3932 275.311 35.3932C274.158 35.3932 273.213 34.3923 273.213 33.0165Z" fill="url(#paint10_linear_2166_592)"/>
<path d="M292.239 26.2339V35.1942H289.217V33.332C288.45 34.6479 286.963 35.3936 284.915 35.3936C281.789 35.3936 279.82 33.4755 279.82 30.8158C279.82 28.156 281.358 26.2658 285.503 26.2658H289.036V26.0385C289.036 23.949 287.908 22.7168 285.628 22.7168C284.091 22.7168 282.503 23.291 281.479 24.2321L280.223 21.6282C281.682 20.3681 283.809 19.738 286.01 19.738C289.952 19.738 292.232 21.8276 292.232 26.2339H292.239ZM289.039 30.413V28.6385H285.735C283.559 28.6385 282.97 29.5557 282.97 30.6722C282.97 31.9602 283.944 32.7896 285.582 32.7896C287.219 32.7896 288.5 31.9881 289.039 30.413Z" fill="url(#paint11_linear_2166_592)"/>
<path d="M295.904 15.2437C295.904 14.0435 296.775 13.0984 297.952 13.0984C299.13 13.0984 300 13.9836 300 15.16C300 16.4201 299.155 17.3931 297.952 17.3931C296.75 17.3931 295.904 16.448 295.904 15.2477V15.2437ZM296.34 19.9093H299.54V35.194H296.34V19.9093Z" fill="url(#paint12_linear_2166_592)"/>
<defs>
<linearGradient id="paint0_linear_2166_592" x1="68.5202" y1="17.8527" x2="32.66" y2="17.8527" gradientUnits="userSpaceOnUse">
<stop stop-color="#0056F8"/>
<stop offset="0.33" stop-color="#1B8FFA"/>
<stop offset="0.63" stop-color="#31BEFD"/>
<stop offset="0.87" stop-color="#3FDCFE"/>
<stop offset="1" stop-color="#45E7FF"/>
</linearGradient>
<linearGradient id="paint1_linear_2166_592" x1="-2.71511" y1="13.2949" x2="50.3277" y2="13.2949" gradientUnits="userSpaceOnUse">
<stop stop-color="#0056F8"/>
<stop offset="0.02" stop-color="#025BF8"/>
<stop offset="0.26" stop-color="#1A8DFA"/>
<stop offset="0.48" stop-color="#2CB4FC"/>
<stop offset="0.69" stop-color="#3AD0FD"/>
<stop offset="0.87" stop-color="#42E1FE"/>
<stop offset="1" stop-color="#45E7FF"/>
</linearGradient>
<linearGradient id="paint2_linear_2166_592" x1="27.2079" y1="53.2071" x2="27.2079" y2="18.8335" gradientUnits="userSpaceOnUse">
<stop stop-color="#0056F8"/>
<stop offset="0.31" stop-color="#1A8DFA"/>
<stop offset="0.63" stop-color="#31BDFD"/>
<stop offset="0.87" stop-color="#3FDBFE"/>
<stop offset="1" stop-color="#45E7FF"/>
</linearGradient>
<linearGradient id="paint3_linear_2166_592" x1="1.55563" y1="1.84655" x2="16.8871" y2="15.6135" gradientUnits="userSpaceOnUse">
<stop stop-color="white"/>
<stop offset="0.13" stop-color="#FAFEFF"/>
<stop offset="0.28" stop-color="#ECFCFF"/>
<stop offset="0.43" stop-color="#D5F9FF"/>
<stop offset="0.6" stop-color="#B4F5FF"/>
<stop offset="0.77" stop-color="#8BF0FF"/>
<stop offset="0.94" stop-color="#59E9FF"/>
<stop offset="1" stop-color="#45E7FF"/>
</linearGradient>
<linearGradient id="paint4_linear_2166_592" x1="58.9193" y1="22.1358" x2="47.1491" y2="10.3481" gradientUnits="userSpaceOnUse">
<stop stop-color="white"/>
<stop offset="0.13" stop-color="#FAFEFF"/>
<stop offset="0.28" stop-color="#ECFCFF"/>
<stop offset="0.43" stop-color="#D5F9FF"/>
<stop offset="0.6" stop-color="#B4F5FF"/>
<stop offset="0.77" stop-color="#8BF0FF"/>
<stop offset="0.94" stop-color="#59E9FF"/>
<stop offset="1" stop-color="#45E7FF"/>
</linearGradient>
<linearGradient id="paint5_linear_2166_592" x1="31.9752" y1="49.0441" x2="31.9752" y2="31.8932" gradientUnits="userSpaceOnUse">
<stop stop-color="white"/>
<stop offset="0.26" stop-color="#FCFEFF"/>
<stop offset="0.41" stop-color="#F4FDFF"/>
<stop offset="0.53" stop-color="#E6FBFF"/>
<stop offset="0.64" stop-color="#D2F9FF"/>
<stop offset="0.74" stop-color="#B8F5FF"/>
<stop offset="0.83" stop-color="#98F1FF"/>
<stop offset="0.92" stop-color="#73ECFF"/>
<stop offset="0.99" stop-color="#48E7FF"/>
<stop offset="1" stop-color="#45E7FF"/>
</linearGradient>
<linearGradient id="paint6_linear_2166_592" x1="-18.235" y1="24.5344" x2="80.6722" y2="24.5344" gradientUnits="userSpaceOnUse">
<stop stop-color="#0056F8"/>
<stop offset="0.15" stop-color="#025AF8"/>
<stop offset="0.32" stop-color="#0868F8"/>
<stop offset="0.5" stop-color="#137FFA"/>
<stop offset="0.69" stop-color="#23A0FB"/>
<stop offset="0.88" stop-color="#36C9FD"/>
<stop offset="1" stop-color="#45E7FF"/>
</linearGradient>
<linearGradient id="paint7_linear_2166_592" x1="-18.2345" y1="-0.00156458" x2="80.6727" y2="-0.00156458" gradientUnits="userSpaceOnUse">
<stop stop-color="#0056F8"/>
<stop offset="0.15" stop-color="#025AF8"/>
<stop offset="0.32" stop-color="#0868F8"/>
<stop offset="0.5" stop-color="#137FFA"/>
<stop offset="0.69" stop-color="#23A0FB"/>
<stop offset="0.88" stop-color="#36C9FD"/>
<stop offset="1" stop-color="#45E7FF"/>
</linearGradient>
<linearGradient id="paint8_linear_2166_592" x1="-18.2348" y1="-0.00164232" x2="80.6724" y2="-0.00164232" gradientUnits="userSpaceOnUse">
<stop stop-color="#0056F8"/>
<stop offset="0.15" stop-color="#025AF8"/>
<stop offset="0.32" stop-color="#0868F8"/>
<stop offset="0.5" stop-color="#137FFA"/>
<stop offset="0.69" stop-color="#23A0FB"/>
<stop offset="0.88" stop-color="#36C9FD"/>
<stop offset="1" stop-color="#45E7FF"/>
</linearGradient>
<linearGradient id="paint9_linear_2166_592" x1="-18.235" y1="-0.00156458" x2="80.6722" y2="-0.00156458" gradientUnits="userSpaceOnUse">
<stop stop-color="#0056F8"/>
<stop offset="0.15" stop-color="#025AF8"/>
<stop offset="0.32" stop-color="#0868F8"/>
<stop offset="0.5" stop-color="#137FFA"/>
<stop offset="0.69" stop-color="#23A0FB"/>
<stop offset="0.88" stop-color="#36C9FD"/>
<stop offset="1" stop-color="#45E7FF"/>
</linearGradient>
<linearGradient id="paint10_linear_2166_592" x1="249.815" y1="33.0963" x2="303.946" y2="32.9622" gradientUnits="userSpaceOnUse">
<stop stop-color="#0056F8"/>
<stop offset="0.33" stop-color="#1B8FFA"/>
<stop offset="0.63" stop-color="#31BEFD"/>
<stop offset="0.87" stop-color="#3FDCFE"/>
<stop offset="1" stop-color="#45E7FF"/>
</linearGradient>
<linearGradient id="paint11_linear_2166_592" x1="249.8" y1="27.6735" x2="303.931" y2="27.5426" gradientUnits="userSpaceOnUse">
<stop stop-color="#0056F8"/>
<stop offset="0.33" stop-color="#1B8FFA"/>
<stop offset="0.63" stop-color="#31BEFD"/>
<stop offset="0.87" stop-color="#3FDCFE"/>
<stop offset="1" stop-color="#45E7FF"/>
</linearGradient>
<linearGradient id="paint12_linear_2166_592" x1="249.79" y1="24.2957" x2="303.925" y2="24.1617" gradientUnits="userSpaceOnUse">
<stop stop-color="#0056F8"/>
<stop offset="0.33" stop-color="#1B8FFA"/>
<stop offset="0.63" stop-color="#31BEFD"/>
<stop offset="0.87" stop-color="#3FDCFE"/>
<stop offset="1" stop-color="#45E7FF"/>
</linearGradient>
</defs>
</svg>
