<svg width="696" height="63" viewBox="0 0 696 63" fill="none" xmlns="http://www.w3.org/2000/svg">
<path d="M516.754 1.37645H463.496C455.651 1.37645 449.252 7.77566 449.252 15.6198V48.1205C449.252 55.9647 455.651 62.3639 463.496 62.3639H516.754C517.098 62.3639 517.373 62.0886 517.373 61.7446V52.1573C517.373 51.8132 517.098 51.538 516.754 51.538H465.904C462.693 51.538 460.078 48.9233 460.078 45.7122V18.0052C460.078 14.7941 462.693 12.1794 465.904 12.1794H516.754C517.098 12.1794 517.373 11.9042 517.373 11.5601V1.97279C517.373 1.62875 517.098 1.35352 516.754 1.35352V1.37645Z" fill="white"/>
<path d="M429.481 1.37549H419.894C419.552 1.37549 419.274 1.65275 419.274 1.99477V61.7436C419.274 62.0857 419.552 62.3629 419.894 62.3629H429.481C429.823 62.3629 430.1 62.0857 430.1 61.7436V1.99477C430.1 1.65275 429.823 1.37549 429.481 1.37549Z" fill="white"/>
<path d="M586.113 62.3409C593.957 62.3409 600.356 55.9417 600.356 48.0975V40.6891C600.356 32.845 593.957 26.4457 586.113 26.4457H547.167C543.956 26.4457 541.341 23.831 541.341 20.6199V18.0052C541.341 16.4456 541.937 15.0006 543.061 13.8996C544.185 12.7987 545.63 12.1794 547.167 12.1794H598.039C598.383 12.1794 598.659 11.9042 598.659 11.5601V1.97279C598.659 1.62875 598.383 1.35352 598.039 1.35352H544.781C536.937 1.35352 530.538 7.75272 530.538 15.5969V23.0053C530.538 30.8495 536.937 37.2487 544.781 37.2487H583.727C586.938 37.2487 589.553 39.8634 589.553 43.0745V45.6892C589.553 48.9003 586.938 51.515 583.727 51.515H532.855C532.511 51.515 532.235 51.7903 532.235 52.1343V61.7217C532.235 62.0657 532.511 62.3409 532.855 62.3409H586.113Z" fill="white"/>
<path d="M400.123 11.5828V1.97255C400.123 1.62851 399.847 1.35327 399.503 1.35327H329.181C328.837 1.35327 328.562 1.62851 328.562 1.97255V11.5599C328.562 11.9039 328.837 12.1792 329.181 12.1792H358.929V61.7214C358.929 62.0655 359.204 62.3407 359.548 62.3407H369.136C369.48 62.3407 369.755 62.0655 369.755 61.7214V12.1792H399.503C399.847 12.1792 400.123 11.9039 400.123 11.5599V11.5828Z" fill="white"/>
<path d="M178.513 1.55908C170.669 1.55908 164.27 7.95829 164.27 15.8025V48.3031C164.27 56.1473 170.669 62.5465 178.513 62.5465H231.771C232.115 62.5465 232.39 62.2713 232.39 61.9272V52.3399C232.39 51.9958 232.115 51.7206 231.771 51.7206H180.921C177.71 51.7206 175.095 49.1059 175.095 45.8948V18.1878C175.095 14.9768 177.71 12.362 180.921 12.362H231.771C232.115 12.362 232.39 12.0868 232.39 11.7428V2.17836C232.39 1.83432 232.115 1.55908 231.771 1.55908H178.513Z" fill="url(#paint0_linear_2137_1471)"/>
<path d="M305.189 62.5465H314.777C315.121 62.5465 315.396 62.2713 315.396 61.9272V2.17836C315.396 1.83432 315.121 1.55908 314.777 1.55908H305.189C304.845 1.55908 304.57 1.83432 304.57 2.17836V26.6513H256.358V2.17836C256.358 1.83432 256.083 1.55908 255.739 1.55908H246.152C245.808 1.55908 245.532 1.83432 245.532 2.17836V61.9272C245.532 62.2713 245.808 62.5465 246.152 62.5465H255.739C256.083 62.5465 256.358 62.2713 256.358 61.9272V37.4543H304.57V61.9272C304.57 62.2713 304.845 62.5465 305.189 62.5465Z" fill="url(#paint1_linear_2137_1471)"/>
<path d="M71.561 11.7657V2.17836C71.561 1.83432 71.2858 1.55908 70.9417 1.55908H0.619278C0.275235 1.55908 0 1.83432 0 2.17836V11.7657C0 12.1097 0.275235 12.385 0.619278 12.385H30.3676V61.9272C30.3676 62.2713 30.6428 62.5465 30.9868 62.5465H40.5742C40.9182 62.5465 41.1935 62.2713 41.1935 61.9272V12.385H70.9417C71.2858 12.385 71.561 12.1097 71.561 11.7657Z" fill="url(#paint2_linear_2137_1471)"/>
<path d="M149.383 62.5465C149.727 62.5465 150.003 62.2713 150.003 61.9272V52.3399C150.003 51.9958 149.727 51.7206 149.383 51.7206H100.254C97.02 51.7206 94.4053 49.1059 94.4053 45.8719V37.4543H142.801C143.145 37.4543 143.42 37.179 143.42 36.835V27.2477C143.42 26.9036 143.145 26.6284 142.801 26.6284H94.4053V18.2108C94.4053 14.9768 97.02 12.362 100.254 12.362H149.383C149.727 12.362 150.003 12.0868 150.003 11.7428V2.17836C150.003 1.83432 149.727 1.55908 149.383 1.55908H97.7769C89.9556 1.55908 83.6023 7.91242 83.6023 15.7337V48.3949C83.6023 56.2161 89.9556 62.5694 97.7769 62.5694H149.383V62.5465Z" fill="url(#paint3_linear_2137_1471)"/>
<path d="M612.099 55.827C612.099 51.8132 615.058 49.1755 618.682 49.1755C622.306 49.1755 625.265 51.8132 625.265 55.827C625.265 59.8409 622.306 62.4785 618.682 62.4785C615.058 62.4785 612.099 59.6803 612.099 55.827Z" fill="url(#paint4_linear_2137_1471)"/>
<path d="M671.688 36.8127V61.9278H662.215V56.7213C659.807 60.4141 655.151 62.5013 648.752 62.5013C638.958 62.5013 632.788 57.1342 632.788 49.657C632.788 42.1798 637.605 36.9044 650.586 36.9044H661.665V36.2622C661.665 30.4135 658.132 26.9501 650.999 26.9501C646.183 26.9501 641.206 28.5556 637.994 31.1933L634.072 23.8996C638.637 20.3674 645.311 18.6013 652.192 18.6013C664.555 18.6013 671.688 24.4501 671.688 36.8127ZM661.665 48.5331V43.5559H651.32C644.508 43.5559 642.651 46.1248 642.651 49.2441C642.651 52.8451 645.701 55.1846 650.839 55.1846C655.976 55.1846 659.99 52.9369 661.665 48.5331Z" fill="url(#paint5_linear_2137_1471)"/>
<path d="M683.156 6.00954C683.156 2.63791 685.885 0.000244141 689.578 0.000244141C693.27 0.000244141 696 2.47736 696 5.78017C696 9.31235 693.362 12.0418 689.578 12.0418C685.793 12.0418 683.156 9.4041 683.156 6.03247V6.00954ZM684.532 19.0832H694.555V61.9051H684.532V19.0832Z" fill="url(#paint6_linear_2137_1471)"/>
<defs>
<linearGradient id="paint0_linear_2137_1471" x1="-300.717" y1="32.0413" x2="9.06012" y2="32.0413" gradientUnits="userSpaceOnUse">
<stop stop-color="#0056F8"/>
<stop offset="0.15" stop-color="#025AF8"/>
<stop offset="0.32" stop-color="#0868F8"/>
<stop offset="0.5" stop-color="#137FFA"/>
<stop offset="0.69" stop-color="#23A0FB"/>
<stop offset="0.88" stop-color="#36C9FD"/>
<stop offset="1" stop-color="#45E7FF"/>
</linearGradient>
<linearGradient id="paint1_linear_2137_1471" x1="-300.717" y1="-0.00058289" x2="9.05992" y2="-0.00058289" gradientUnits="userSpaceOnUse">
<stop stop-color="#0056F8"/>
<stop offset="0.15" stop-color="#025AF8"/>
<stop offset="0.32" stop-color="#0868F8"/>
<stop offset="0.5" stop-color="#137FFA"/>
<stop offset="0.69" stop-color="#23A0FB"/>
<stop offset="0.88" stop-color="#36C9FD"/>
<stop offset="1" stop-color="#45E7FF"/>
</linearGradient>
<linearGradient id="paint2_linear_2137_1471" x1="-300.717" y1="-0.00058289" x2="9.05981" y2="-0.00058289" gradientUnits="userSpaceOnUse">
<stop stop-color="#0056F8"/>
<stop offset="0.15" stop-color="#025AF8"/>
<stop offset="0.32" stop-color="#0868F8"/>
<stop offset="0.5" stop-color="#137FFA"/>
<stop offset="0.69" stop-color="#23A0FB"/>
<stop offset="0.88" stop-color="#36C9FD"/>
<stop offset="1" stop-color="#45E7FF"/>
</linearGradient>
<linearGradient id="paint3_linear_2137_1471" x1="-300.717" y1="-0.000583124" x2="9.05954" y2="-0.000583124" gradientUnits="userSpaceOnUse">
<stop stop-color="#0056F8"/>
<stop offset="0.15" stop-color="#025AF8"/>
<stop offset="0.32" stop-color="#0868F8"/>
<stop offset="0.5" stop-color="#137FFA"/>
<stop offset="0.69" stop-color="#23A0FB"/>
<stop offset="0.88" stop-color="#36C9FD"/>
<stop offset="1" stop-color="#45E7FF"/>
</linearGradient>
<linearGradient id="paint4_linear_2137_1471" x1="538.818" y1="56.0335" x2="708.363" y2="55.5747" gradientUnits="userSpaceOnUse">
<stop stop-color="#0056F8"/>
<stop offset="0.33" stop-color="#1B8FFA"/>
<stop offset="0.63" stop-color="#31BEFD"/>
<stop offset="0.87" stop-color="#3FDCFE"/>
<stop offset="1" stop-color="#45E7FF"/>
</linearGradient>
<linearGradient id="paint5_linear_2137_1471" x1="538.772" y1="40.8495" x2="708.317" y2="40.3907" gradientUnits="userSpaceOnUse">
<stop stop-color="#0056F8"/>
<stop offset="0.33" stop-color="#1B8FFA"/>
<stop offset="0.63" stop-color="#31BEFD"/>
<stop offset="0.87" stop-color="#3FDCFE"/>
<stop offset="1" stop-color="#45E7FF"/>
</linearGradient>
<linearGradient id="paint6_linear_2137_1471" x1="538.749" y1="31.377" x2="708.294" y2="30.9183" gradientUnits="userSpaceOnUse">
<stop stop-color="#0056F8"/>
<stop offset="0.33" stop-color="#1B8FFA"/>
<stop offset="0.63" stop-color="#31BEFD"/>
<stop offset="0.87" stop-color="#3FDCFE"/>
<stop offset="1" stop-color="#45E7FF"/>
</linearGradient>
</defs>
</svg>
