<svg width="88" height="88" viewBox="0 0 88 88" fill="none" xmlns="http://www.w3.org/2000/svg">
<path d="M44.6095 3.47852C67.3094 3.47852 85.7144 21.8855 85.7144 44.5968C85.7144 67.3081 67.3134 85.715 44.6095 85.715C21.9057 85.715 3.50867 67.3041 3.50867 44.5968" stroke="#5EF5FF" stroke-width="3" stroke-miterlimit="10"/>
<path d="M47.7308 0H41.492C41.2936 0 41.1328 0.160889 41.1328 0.359356V6.60016C41.1328 6.79863 41.2936 6.95952 41.492 6.95952H47.7308C47.9292 6.95952 48.0901 6.79863 48.0901 6.60016V0.359356C48.0901 0.160889 47.9292 0 47.7308 0Z" fill="#5EF5FF"/>
<path d="M6.59801 41.146H0.359238C0.160837 41.146 0 41.3069 0 41.5053V47.7462C0 47.9446 0.160837 48.1055 0.359238 48.1055H6.59801C6.79641 48.1055 6.95725 47.9446 6.95725 47.7462V41.5053C6.95725 41.3069 6.79641 41.146 6.59801 41.146Z" fill="#5EF5FF"/>
<path fill-rule="evenodd" clip-rule="evenodd" d="M54.4713 62.6667C54.1257 62.2067 32.8838 34.6392 30.9796 32.1104H36.796C38.3797 34.2118 55.2883 56.1993 60.162 62.6667H54.4745H54.4713ZM21.9769 66.7627H28.0321C31.077 63.7501 38.0277 56.8849 41.6351 53.3202C43.2911 55.5671 48.4507 61.901 52.0078 66.7567C52.564 66.7567 67.3422 66.7567 68.5425 66.7567C66.0947 63.5097 54.0189 48.5535 50.7917 44.2735C55.6937 39.4326 61.9311 33.2709 67.3076 27.958C66.8268 27.958 61.265 27.958 61.2556 27.958C60.4637 28.7416 50.93 38.1593 48.479 40.5812C47.3006 39.0052 39.1087 28.2103 38.9296 27.958H22.7656C24.208 29.8724 37.3741 47.3396 39.1935 49.7556C37.8455 51.115 24.0854 64.6316 21.9769 66.7627Z" fill="url(#paint0_linear_2137_1517)"/>
<defs>
<linearGradient id="paint0_linear_2137_1517" x1="25.7188" y1="41.6633" x2="57.604" y2="74.7632" gradientUnits="userSpaceOnUse">
<stop stop-color="#5EF5FF"/>
<stop offset="1" stop-color="white"/>
</linearGradient>
</defs>
</svg>
