<svg width="88" height="88" viewBox="0 0 88 88" fill="none" xmlns="http://www.w3.org/2000/svg">
<path d="M44.6094 3.47852C67.3093 3.47852 85.7143 21.8855 85.7143 44.5968C85.7143 67.3081 67.3133 85.715 44.6094 85.715C21.9055 85.715 3.50854 67.3041 3.50854 44.5968" stroke="#5EF5FF" stroke-width="3" stroke-miterlimit="10"/>
<path d="M47.7308 0H41.492C41.2936 0 41.1328 0.160889 41.1328 0.359356V6.60016C41.1328 6.79863 41.2936 6.95952 41.492 6.95952H47.7308C47.9292 6.95952 48.0901 6.79863 48.0901 6.60016V0.359356C48.0901 0.160889 47.9292 0 47.7308 0Z" fill="#5EF5FF"/>
<path d="M6.59801 41.146H0.359238C0.160837 41.146 0 41.3069 0 41.5053V47.7462C0 47.9446 0.160837 48.1055 0.359238 48.1055H6.59801C6.79641 48.1055 6.95725 47.9446 6.95725 47.7462V41.5053C6.95725 41.3069 6.79641 41.146 6.59801 41.146Z" fill="#5EF5FF"/>
<path d="M66.3506 37.6968L66.2274 36.7906C65.8109 33.7646 63.013 31.4883 59.6931 31.4883H31.7491C28.4292 31.4883 25.6313 33.7592 25.2148 36.7906L25.0916 37.6968C24.376 42.9452 24.376 48.2529 25.0916 53.5013L25.2148 54.4075C25.6313 57.4336 28.4292 59.7099 31.7491 59.7099H59.6931C63.013 59.7099 65.8109 57.439 66.2274 54.4075L66.3506 53.5013C67.0662 48.2529 67.0662 42.9452 66.3506 37.6968ZM40.3658 51.7267V39.4661L53.4051 45.5937L40.3658 51.7213V51.7267Z" fill="url(#paint0_linear_2137_1524)"/>
<defs>
<linearGradient id="paint0_linear_2137_1524" x1="27.9566" y1="41.4557" x2="50.3962" y2="70.5738" gradientUnits="userSpaceOnUse">
<stop stop-color="#5EF5FF"/>
<stop offset="1" stop-color="white"/>
</linearGradient>
</defs>
</svg>
